<svg xmlns="http://www.w3.org/2000/svg" width="100" height="106" viewBox="0 0 100 106">
  <g fill="none" fill-rule="evenodd">
    <path fill="#00A0C6" d="M50.9498718,70.6081325 L45.3537179,70.6081325 L45.3537179,57.4322048 L26.4998718,57.4322048 L26.4998718,51.9125422 L45.3537179,51.9125422 L45.3537179,38.9217952 L50.9498718,38.9217952 L50.9498718,70.6081325 Z M18.3665385,70.6081325 L23.9614103,70.6081325 L23.9614103,38.9217952 L18.3665385,38.9217952 L18.3665385,70.6081325 Z"/>
    <path fill="#033C5A" d="M83.8117949,70.6081325 L75.5874359,70.6081325 L66.6066667,61.7003012 L54.5220513,61.7003012 L54.5220513,56.1806386 L69.5682051,56.1806386 C71.6374359,56.1806386 73.3771795,55.7336506 74.7874359,54.8396747 C76.3861538,53.7924458 77.1848718,52.299506 77.1848718,50.3583012 C77.1848718,46.4145904 74.6464103,44.4427349 69.5682051,44.4427349 L51.2310256,44.4427349 L51.2310256,70.6081325 L45.6361538,70.6081325 L45.6361538,38.9217952 L68.6758974,38.9217952 C72.8130769,38.9217952 76.1515385,39.8055542 78.69,41.5717952 C81.6053846,43.5857952 83.0630769,46.5461325 83.0630769,50.450253 C83.0630769,53.1143012 82.2117949,55.407988 80.5117949,57.328759 C78.9361538,59.1269277 76.7951282,60.3810482 74.0861538,61.0936747 L83.8117949,70.6081325 Z"/>
    <path fill="#043F5F" d="M15.0901282 99.3417952C14.9798718 98.2626386 14.5478205 97.4044217 13.7952564 96.7684217 13.0414103 96.1336988 12.1055128 95.8156988 10.9862821 95.8156988L6.62730769 95.8156988C6.21320513 95.8156988 5.89269231 95.994494 5.66192308 96.3546386 5.47858974 96.654759 5.3875641 97.0263976 5.3875641 97.4708313 5.3875641 97.913988 5.47858974 98.3162771 5.66192308 98.6764217 5.90423077 99.1195783 6.22602564 99.3417952 6.62730769 99.3417952L15.0901282 99.3417952zM17.259359 99.9535301C17.259359 101.76447 16.6760256 103.219096 15.509359 104.31741 14.3426923 105.414446 12.8337179 105.963602 10.9862821 105.963602L4.65807692 105.963602 4.65807692 103.821892 10.9862821 103.821892C11.8862821 103.821892 12.6773077 103.604783 13.3567949 103.169289 14.0375641 102.736349 14.5298718 102.119506 14.835 101.321313L6.62730769 101.321313C5.60679487 101.321313 4.79141026 100.931795 4.18371795 100.150205 3.62474359 99.4311928 3.34525641 98.549988 3.34525641 97.5065904 3.34525641 96.4631928 3.62474359 95.5807108 4.18371795 94.8616988 4.79141026 94.0698916 5.60679487 93.673988 6.62730769 93.673988L10.9862821 93.673988C12.810641 93.673988 14.3119231 94.2716747 15.4914103 95.464494 16.6696154 96.6573133 17.259359 98.1540843 17.259359 99.9535301L17.259359 99.9535301zM37.2644872 105.981482L34.0747436 105.981482 30.5914103 102.525627 25.9055128 102.525627 25.9055128 100.385193 31.7401282 100.385193C32.5426923 100.385193 33.2170513 100.212783 33.7644872 99.8654096 34.3837179 99.4592892 34.6939744 98.8794819 34.6939744 98.1272651 34.6939744 96.5972892 33.709359 95.8335783 31.7401282 95.8335783L24.6273077 95.8335783 24.6273077 105.981482 22.4580769 105.981482 22.4580769 93.6918675 31.3939744 93.6918675C32.9978205 93.6918675 34.2939744 94.0341325 35.2785897 94.7199398 36.409359 95.5015301 36.9734615 96.6483735 36.9734615 98.1630241 36.9734615 99.1962048 36.6439744 100.085072 35.9837179 100.830904 35.3734615 101.528205 34.5426923 102.014783 33.4926923 102.291916L37.2644872 105.981482zM40.7871795 100.817494L47.8987179 100.817494 47.8987179 98.6770602 40.7871795 98.6770602 40.7871795 100.817494zM48.4641026 105.98212L37.7038462 105.98212 37.7038462 93.692506 48.4641026 93.692506 48.4641026 95.8342169 39.8730769 95.8342169 39.8730769 103.84041 48.4641026 103.84041 48.4641026 105.98212zM65.5380769 105.981482L62.7380769 105.963602 60.6547436 102.525627 54.7419231 102.525627 56.0508974 100.385193 59.3419231 100.385193 57.1816667 96.853988 51.5662821 105.981482 48.7791026 105.981482 55.5444872 94.8616988C55.715 94.5730723 55.9521795 94.309988 56.2573077 94.0698916 56.6201282 93.7940361 56.9496154 93.6561084 57.240641 93.6561084 57.5560256 93.6561084 57.8855128 93.7876506 58.2252564 94.052012 58.5175641 94.2793373 58.7547436 94.5500843 58.9367949 94.8616988L65.5380769 105.981482z"/>
    <polygon fill="#043F5F" points="76.679 105.981 65.938 105.981 65.938 93.692 68.107 93.692 68.107 103.84 76.679 103.84"/>
    <polygon fill="#043F5F" points="84.681 95.834 79.775 95.834 79.775 105.982 77.623 105.982 77.623 95.834 72.7 95.834 72.7 93.692 84.681 93.692"/>
    <polygon fill="#043F5F" points="100 93.692 93.818 101.915 93.818 105.981 91.665 105.981 91.665 101.879 85.319 93.692 88.121 93.692 92.791 99.717 97.185 93.692"/>
    <polygon fill="#043F5F" points="0 106 2.1 106 2.1 93.793 0 93.793"/>
    <polygon fill="#033C5A" points="12.751 77.47 12.751 32.714 49.734 14.097 49.734 .067 49.7 .001 .008 25.014 .008 90.043 49.734 90.043 49.734 77.47"/>
    <polygon fill="#00A0C6" points="49.564 14.321 86.546 32.733 86.546 77.47 49.564 77.47 49.564 90.043 99.291 90.043 99.291 24.995 51.2 1.052 49.564 .236"/>
  </g>
</svg>
