<svg xmlns="http://www.w3.org/2000/svg" width="50" height="53" viewBox="0 0 50 53">
  <g fill="none" fill-rule="evenodd">
    <path fill="#00A0C6" d="M25.3478261,35.7173913 L22.5774406,35.7173913 L22.5774406,29.0099754 L13.2438119,29.0099754 L13.2438119,26.2001032 L22.5774406,26.2001032 L22.5774406,19.5869565 L25.3478261,19.5869565 L25.3478261,35.7173913 Z M9.2173913,35.7173913 L11.9871421,35.7173913 L11.9871421,19.5869565 L9.2173913,19.5869565 L9.2173913,35.7173913 Z"/>
    <path fill="#033C5A" d="M41.4782609,35.7173913 L37.5067684,35.7173913 L33.1700101,31.1827179 L27.3344236,31.1827179 L27.3344236,28.3728457 L34.6001189,28.3728457 C35.5993377,28.3728457 36.4394492,28.1452993 37.1204533,27.6902067 C37.8924644,27.1570981 38.2781604,26.3970933 38.2781604,25.4088921 C38.2781604,23.4012833 37.0523529,22.3974789 34.6001189,22.3974789 L25.7452075,22.3974789 L25.7452075,35.7173913 L23.0434783,35.7173913 L23.0434783,19.5869565 L34.1692289,19.5869565 C36.1670475,19.5869565 37.7791701,20.0368481 39.0049776,20.9359812 C40.4127989,21.96124 41.1167096,23.4682469 41.1167096,25.4557016 C41.1167096,26.8118778 40.7056307,27.9795156 39.8847111,28.9573147 C39.1238438,29.8727011 38.0899556,30.5111311 36.7818085,30.873905 L41.4782609,35.7173913 Z"/>
    <path fill="#043F5F" d="M6.98746289 49.8959671C6.93268341 49.3901025 6.71802427 48.9878055 6.34412244 48.6896746 5.96958365 48.3921425 5.504595 48.243077 4.94851954 48.243077L2.78281902 48.243077C2.57707747 48.243077 2.41783478 48.3268889 2.30318005 48.49571 2.21209323 48.6363942 2.16686831 48.8106032 2.16686831 49.0189356 2.16686831 49.2266693 2.21209323 49.4152461 2.30318005 49.5840672 2.42356752 49.7918009 2.58344717 49.8959671 2.78281902 49.8959671L6.98746289 49.8959671zM8.06521739 50.1827235C8.06521739 51.0316181 7.7753957 51.7134876 7.19575233 52.228332 6.61610895 52.7425778 5.86639439 53 4.94851954 53L1.80443195 53 1.80443195 51.9960534 4.94851954 51.9960534C5.39567301 51.9960534 5.78868395 51.8942818 6.12627845 51.69014 6.46450991 51.4871955 6.70910668 51.1980445 6.86070572 50.8238844L2.78281902 50.8238844C2.2757903 50.8238844 1.87067691 50.6412942 1.56875278 50.2749165 1.29103354 49.937873 1.15217391 49.5248002 1.15217391 49.035698 1.15217391 48.5465958 1.29103354 48.1329243 1.56875278 47.7958808 1.87067691 47.4247139 2.2757903 47.2391304 2.78281902 47.2391304L4.94851954 47.2391304C5.85492891 47.2391304 6.60082165 47.5193016 7.18683474 48.0784466 7.77221085 48.6375915 8.06521739 49.3392167 8.06521739 50.1827235L8.06521739 50.1827235zM18.4347826 53L16.9455063 53 15.3191543 51.3800361 13.1313308 51.3800361 13.1313308 50.3766881 15.8554853 50.3766881C16.2301987 50.3766881 16.5450538 50.2958695 16.800649 50.133035 17.089765 49.9426623 17.2346222 49.6708723 17.2346222 49.3182638 17.2346222 48.6010735 16.7749099 48.243077 15.8554853 48.243077L12.5345428 48.243077 12.5345428 53 11.5217391 53 11.5217391 47.2391304 15.6938677 47.2391304C16.442696 47.2391304 17.0478641 47.3995703 17.5075764 47.7210488 18.0355273 48.0874264 18.2989041 48.6250198 18.2989041 49.3350261 18.2989041 49.8193391 18.1450681 50.2360039 17.8367975 50.5856191 17.5518716 50.9124855 17.1639894 51.1405735 16.6737493 51.270482L18.4347826 53zM20.0855501 50.5790339L23.8929543 50.5790339 23.8929543 49.575686 20.0855501 49.575686 20.0855501 50.5790339zM24.1956522 53L18.4347826 53 18.4347826 47.2391304 24.1956522 47.2391304 24.1956522 48.243077 19.5961541 48.243077 19.5961541 51.9960534 24.1956522 51.9960534 24.1956522 53zM32.2608696 53L30.9133761 52.9916431 29.9107768 51.384736 27.0652457 51.384736 27.6951865 50.384299 29.278985 50.384299 28.2393666 48.7338167 25.5369758 53 24.1956522 53 27.4514778 47.8026224C27.5335367 47.6677186 27.6476787 47.5447532 27.794521 47.4325323 27.9691275 47.3035977 28.1276924 47.2391304 28.2677479 47.2391304 28.419526 47.2391304 28.5780909 47.3006131 28.7415917 47.4241755 28.8822641 47.5304271 28.9964062 47.656974 29.0840179 47.8026224L32.2608696 53z"/>
    <polygon fill="#043F5F" points="38.022 53 32.261 53 32.261 47.239 33.424 47.239 33.424 51.996 38.022 51.996"/>
    <polygon fill="#043F5F" points="41.478 48.243 39.12 48.243 39.12 53 38.085 53 38.085 48.243 35.717 48.243 35.717 47.239 41.478 47.239"/>
    <polygon fill="#043F5F" points="49.543 47.239 46.632 51.094 46.632 53 45.619 53 45.619 51.077 42.63 47.239 43.95 47.239 46.149 50.064 48.218 47.239"/>
    <polygon fill="#043F5F" points="0 53 1.152 53 1.152 47.239 0 47.239"/>
    <polygon fill="#033C5A" points="6.201 38.66 6.201 16.325 24.196 7.035 24.196 .033 24.179 0 0 12.483 0 44.935 24.196 44.935 24.196 38.66"/>
    <polygon fill="#00A0C6" points="24.196 7.047 42.19 16.26 42.19 38.644 24.196 38.644 24.196 44.935 48.391 44.935 48.391 12.388 24.992 .408 24.196 0"/>
  </g>
</svg>
