<svg xmlns="http://www.w3.org/2000/svg" width="70" height="46" viewBox="0 0 70 46">
  <defs>
    <filter id="a" width="126.7%" height="144.4%" x="-13.3%" y="-16.7%" filterUnits="objectBoundingBox">
      <feOffset dy="2" in="SourceAlpha" result="shadowOffsetOuter1"/>
      <feGaussianBlur stdDeviation="2" in="shadowOffsetOuter1" result="shadowBlurOuter1"/>
      <feColorMatrix values="0 0 0 0 0 0 0 0 0 0 0 0 0 0 0 0 0 0 0.5 0" in="shadowBlurOuter1" result="shadowMatrixOuter1"/>
      <feMerge>
        <feMergeNode in="shadowMatrixOuter1"/>
        <feMergeNode in="SourceGraphic"/>
      </feMerge>
    </filter>
  </defs>
  <g fill="#468203" fill-rule="evenodd" stroke="#FFFFFF" filter="url(#a)" transform="translate(5 3)">
    <path d="M15.5043945,-3.25260652e-19 L44.4956055,-3.25260652e-19 L44.4956055,5.32907052e-15 C53.0584461,3.75611001e-15 60,6.94155388 60,15.5043945 L60,15.5043945 L60,15.5043945 C60,24.0672352 53.0584461,31.0087891 44.4956055,31.0087891 L15.5043945,31.0087891 L15.5043945,31.0087891 C6.94155388,31.0087891 1.04864554e-15,24.0672352 0,15.5043945 L0,15.5043945 L0,15.5043945 C-1.04864554e-15,6.94155388 6.94155388,1.57296051e-15 15.5043945,0 Z"/>
    <circle cx="30.5" cy="31.5" r="4.5" stroke-width="1.5"/>
  </g>
</svg>
