<svg xmlns="http://www.w3.org/2000/svg" width="260" height="89" viewBox="0 0 260 89">
  <g fill="none" fill-rule="evenodd">
    <polygon fill="#707070" points="17.802 65.275 11.916 81.819 6.013 65.275 0 65.275 0 88.022 4.499 88.022 4.307 71.509 10.194 88.022 13.623 88.022 19.492 71.509 19.332 88.022 23.817 88.022 23.817 65.275"/>
    <g transform="translate(24.81)">
      <path fill="#707070" d="M14.510115 77.978967C14.1561357 76.8236044 13.56617 75.945956 12.7384304 75.3424615 11.908903 74.738967 10.8630548 74.4381099 9.60088596 74.4381099 8.50855568 74.4381099 7.53064297 74.7638901 6.66357229 75.4136703 5.79828938 76.0634505 5.21547486 76.9197363 4.91512872 77.978967L14.510115 77.978967zM4.77031898 81.1726813C4.9097654 82.4223956 5.41570561 83.4068571 6.28813962 84.1242857 7.15878585 84.8434945 8.28508385 85.2030989 9.66524585 85.2030989 10.584162 85.2030989 11.4101139 85.0143956 12.1431015 84.6352088 12.876089 84.2578022 13.455328 83.7272967 13.8843939 83.0472527L18.3127116 83.0472527C17.5636341 84.9342857 16.4444872 86.4011868 14.9516954 87.4443956 13.4589036 88.4893846 11.7354888 89.010989 9.77787565 89.010989 8.46207354 89.010989 7.24996236 88.7831209 6.14332988 88.3273846 5.0366974 87.8698681 4.04448249 87.1969451 3.16668516 86.3032747 2.33358219 85.4541099 1.68462001 84.4714286 1.22516194 83.3534505.765703863 82.2354725.535080939 81.089011.535080939 79.9140659.535080939 78.7088571.746038343 77.5712967 1.16974092 76.5067253 1.59165573 75.4421538 2.21558907 74.4843956 3.03796539 73.6352308 3.93721601 72.7006154 4.95267199 71.9814066 6.08612109 71.4776044 7.22135796 70.9755824 8.39235033 70.7227912 9.60088596 70.7227912 11.1294332 70.7227912 12.5578652 71.0645934 13.8843939 71.7464176 15.2109227 72.4282418 16.3390084 73.3877802 17.270439 74.6268132 17.8371636 75.3709451 18.2572906 76.2058681 18.5290323 77.1298022 18.8025619 78.051956 18.9384327 79.1111868 18.9384327 80.3074945 18.9384327 80.4018462 18.9330694 80.5478242 18.9223428 80.7400879 18.9116161 80.9341319 18.9062528 81.0783297 18.9062528 81.1726813L4.77031898 81.1726813zM28.6036786 74.7519626C27.0089836 74.8783582 25.8969878 75.2878088 25.2659034 75.9803143 24.6366067 76.6728198 24.3201706 77.9207538 24.3201706 79.7258967L24.3201706 88.5557868 20.2136524 88.5557868 20.2136524 71.2431495 24.0627311 71.2431495 24.0627311 73.240556C24.6830889 72.4643802 25.3624432 71.8947099 26.1007941 71.5333253 26.839145 71.1719407 27.6740358 70.9903582 28.6036786 70.9903582L28.6036786 74.7519626zM32.2677226 79.7574066C32.2677226 81.2154066 32.7629362 82.4348571 33.7515755 83.4157582 34.7420027 84.3984396 35.9469628 84.888 37.3700314 84.888 38.6643802 84.888 39.8031926 84.3948791 40.7864686 83.4086374 41.7715324 82.4223956 42.2631704 81.2688132 42.2631704 79.9461099 42.2631704 78.5397363 41.7697447 77.330967 40.7793175 76.318022 39.7906782 75.3050769 38.6322002 74.7994945 37.3056715 74.7994945 35.9147828 74.7994945 34.7277005 75.2801538 33.7426367 76.2396923 32.7593606 77.1992308 32.2677226 78.3723956 32.2677226 79.7574066L32.2677226 79.7574066zM42.7279918 88.5552527L42.7279918 86.4296703C42.2363538 87.2895165 41.5444851 87.9250549 40.6523855 88.3345055 39.7584982 88.743956 38.6161102 88.9486813 37.2252216 88.9486813 34.6150707 88.9486813 32.4375612 88.0745934 30.6873299 86.3281978 28.9388863 84.580022 28.0646645 82.4117143 28.0646645 79.8197143 28.0646645 78.602044 28.282773 77.4484615 28.7225656 76.3571868 29.1605704 75.2659121 29.7862915 74.3063736 30.5997289 73.4767912 31.4757385 72.5653187 32.4500756 71.8906154 33.5191649 71.4544615 34.5882541 71.0200879 35.7914264 70.8011209 37.1286818 70.8011209 38.4123039 70.8011209 39.5171487 71.0111868 40.4432159 71.4313187 41.3674954 71.8514505 42.1129974 72.4852088 42.6797219 73.3361538L42.6797219 71.2426154 46.6914881 71.2426154 46.6914881 88.5552527 42.7279918 88.5552527zM53.2118597 71.2424374L53.2118597 73.2095802C53.8107642 72.4227231 54.4972696 71.8405912 55.2731638 71.4631846 56.0472702 71.085778 56.9340064 70.8952945 57.9280091 70.8952945 59.2009046 70.8952945 60.3111126 71.1320637 61.2568454 71.603822 62.2043659 72.0773604 62.9927745 72.7858879 63.623859 73.7294044 64.0296838 74.3596022 64.3210911 75.0752505 64.4980808 75.8781297 64.6750705 76.6792286 64.7626714 77.8523934 64.7626714 79.3940637L64.7626714 88.5550747 60.6561531 88.5550747 60.6561531 80.8894484C60.6561531 78.5716022 60.3826236 76.9818659 59.8373524 76.1220198 59.2920811 75.2621736 58.3499239 74.8313604 57.0144563 74.8313604 55.6450209 74.8313604 54.6599571 75.3048989 54.0610526 76.2555363 53.4621481 77.2043934 53.1635898 78.8332945 53.1635898 81.1422396L53.1635898 88.5550747 49.2000935 88.5550747 49.2000935 71.2424374 53.2118597 71.2424374zM80.7655782 79.9777978C80.7655782 78.4984352 80.2882424 77.2647429 79.3299952 76.2785011 78.371748 75.2922593 77.1775146 74.7991385 75.7437194 74.7991385 74.3331652 74.7991385 73.1264173 75.3029407 72.1270513 76.3105451 71.1258976 77.3181495 70.6253207 78.5180176 70.6253207 79.9154901 70.6253207 81.3734901 71.1294731 82.5876 72.1342024 83.5578198 73.1389318 84.5298198 74.406464 85.0140396 75.936799 85.0140396 77.2847811 85.0140396 78.4253813 84.5262593 79.3621752 83.5506989 80.2971813 82.5751385 80.7655782 81.3841714 80.7655782 79.9777978M80.9425679 72.6272703L80.9425679 65.6399077 84.9847263 65.6399077 84.9847263 88.5548967 80.9425679 88.5548967 80.9425679 87.1378418C80.1291305 87.7680396 79.2745742 88.2380176 78.3753236 88.5477758 77.476073 88.8557538 76.5035236 89.010633 75.4540999 89.010633 74.3421041 89.010633 73.2944682 88.8379516 72.3111921 88.492589 71.3261283 88.1454462 70.4429677 87.641644 69.6634979 86.9811824 68.5944087 86.078611 67.7720324 85.0104791 67.1999445 83.778567 66.6278567 82.5448747 66.3418127 81.2364132 66.3418127 79.8514022 66.3418127 78.5714242 66.6064034 77.3448527 67.1355846 76.1681275 67.6647659 74.9931824 68.4120557 73.9748967 69.3738784 73.1150505 70.1765892 72.3709187 71.0955054 71.8048088 72.1342024 71.4149407 73.1711117 71.0268527 74.2777442 70.8328088 75.4540999 70.8328088 76.5893368 70.8328088 77.5940661 70.9770066 78.4718634 71.2654022 79.347873 71.555578 80.1720371 72.0095341 80.9425679 72.6272703"/>
      <path fill="#0976D1" d="M90.864717 77.5376505L92.5970706 77.5376505C94.9408431 77.5376505 96.6821355 77.1655846 97.8280991 76.4214527 98.9722748 75.6755407 99.5443627 74.5415407 99.5443627 73.021233 99.5443627 71.5418703 99.0527247 70.4559363 98.0694486 69.7634308 97.0843848 69.0709253 95.5290209 68.7255626 93.3997814 68.7255626L90.864717 68.7255626 90.864717 77.5376505zM90.864717 88.5554308L87.4786719 88.5554308 87.4786719 65.6386615 94.2185821 65.6386615C97.0200249 65.6386615 99.1599911 66.2742 100.634905 67.5434967 102.111607 68.8127934 102.849958 70.6499802 102.849958 73.0514967 102.849958 74.9207275 102.231388 76.4819802 100.996036 77.7352549 99.7606834 78.9885297 98.169564 79.663233 96.2226775 79.7575846L102.849958 88.5554308 98.6129321 88.5554308 90.864717 77.9168374 90.864717 88.5554308zM118.498528 78.245822C118.101642 76.8180857 117.418712 75.7143495 116.444375 74.932833 115.471825 74.1513165 114.304409 73.7596681 112.947488 73.7596681 111.556599 73.7596681 110.349851 74.1619978 109.329032 74.9648769 108.306425 75.767756 107.603829 76.860811 107.219458 78.245822L118.498528 78.245822zM107.122918 81.0478879C107.391084 82.4952066 108.056136 83.6683714 109.119862 84.5656022 110.183588 85.462833 111.449333 85.9114484 112.915308 85.9114484 113.962944 85.9114484 114.917615 85.6639978 115.779323 85.1708769 116.639242 84.677756 117.327535 83.9799099 117.840627 83.0773385L121.417964 83.0773385C120.606314 84.9981956 119.469289 86.4668769 118.008678 87.4851626 116.549854 88.5016681 114.84968 89.010811 112.915308 89.010811 111.610232 89.010811 110.415999 88.7847231 109.337971 88.3343275 108.256367 87.8839319 107.276667 87.2056681 106.400657 86.3030967 105.576493 85.4539319 104.932894 84.4659099 104.468073 83.3372505 104.001464 82.2103714 103.769053 81.0585692 103.769053 79.881844 103.769053 78.6659538 103.98001 77.5266132 104.403713 76.4673824 104.825628 75.4081516 105.447773 74.4432725 106.271937 73.5727451 107.149735 72.6274484 108.138374 71.9171407 109.239643 71.4400418 110.3427 70.9611626 111.545872 70.7226132 112.850948 70.7226132 114.400948 70.7226132 115.841895 71.0768769 117.175575 71.7854044 118.505679 72.4939319 119.60516 73.4837341 120.472231 74.7512505 120.985322 75.5381077 121.364331 76.4032945 121.611043 77.3414703 121.857756 78.2796462 121.981113 79.3531187 121.981113 80.5601077L121.981113 81.0478879 107.122918 81.0478879zM126.014153 79.7885604C126.014153 81.5402967 126.604119 83.008978 127.785838 84.1963846 128.967557 85.382011 130.415655 85.9748242 132.126555 85.9748242 133.68907 85.9748242 135.065656 85.3784505 136.258102 84.1874835 137.450548 82.9965165 138.047664 81.6043846 138.047664 80.0093077 138.047664 78.3091978 137.455911 76.852978 136.274192 75.6424286 135.092473 74.4300989 133.68907 73.823044 132.062195 73.823044 130.394201 73.823044 128.967557 74.3998352 127.785838 75.5551978 126.604119 76.7087802 126.014153 78.1204945 126.014153 79.7885604L126.014153 79.7885604zM137.886765 88.5543626L137.886765 86.4305604C137.073327 87.2601429 136.166925 87.8867802 135.167559 88.3122527 134.168193 88.7359451 133.100892 88.9495714 131.967443 88.9495714 129.314385 88.9495714 127.110059 88.0808242 125.356252 86.3433297 123.600658 84.6076154 122.724648 82.4321868 122.724648 79.8188242 122.724648 78.6029341 122.942757 77.4493516 123.382549 76.3580769 123.820554 75.2668022 124.446275 74.3054835 125.259713 73.4776813 126.146449 72.5644286 127.118998 71.8897253 128.171997 71.4553516 129.224997 71.0191978 130.426381 70.802011 131.774363 70.802011 132.982899 70.802011 134.094895 71.0120769 135.110351 71.4322088 136.127594 71.8523407 137.053662 72.4860989 137.886765 73.3352637L137.886765 71.2417253 141.09582 71.2417253 141.09582 88.5543626 137.886765 88.5543626z"/>
      <polygon fill="#0976D1" points="143.669 88.553 146.814 88.553 146.814 65.638 143.669 65.638"/>
      <polygon fill="#0976D1" points="166.574 88.555 154.444 88.555 154.444 65.64 166.574 65.64 166.574 68.693 157.83 68.693 157.83 75.54 166.574 75.54 166.574 78.529 157.83 78.529 157.83 85.391 166.574 85.391"/>
      <path fill="#0976D1" d="M168.216182,82.9516549 L171.199978,82.9516549 C171.199978,83.8649077 171.459205,84.6179407 171.979448,85.2107538 C172.497902,85.803567 173.146864,86.1008637 173.928122,86.1008637 C174.666473,86.1008637 175.272528,85.876556 175.749864,85.4315011 C176.225412,84.9846659 176.463186,84.4149956 176.463186,83.7224901 C176.463186,83.1154352 176.295135,82.6009516 175.957246,82.1808198 C175.621144,81.7606879 175.077661,81.404644 174.328583,81.1109077 C174.072932,81.0058747 173.710013,80.8687978 173.238041,80.7014571 C171.986599,80.2386 171.189251,79.8718747 170.847786,79.5995011 C170.216702,79.1063802 169.75188,78.5473912 169.451534,77.9243143 C169.152976,77.2994571 169.002803,76.5784681 169.002803,75.759567 C169.002803,74.3531934 169.50338,73.1568857 170.502746,72.170644 C171.502112,71.1844022 172.72495,70.6912813 174.169471,70.6912813 C175.676565,70.6912813 176.874374,71.1238747 177.762898,71.9908418 C178.649635,72.8560286 179.137697,74.0701385 179.221723,75.6331714 L176.175355,75.6331714 C176.121721,74.9940725 175.907188,74.495611 175.533543,74.1377868 C175.158111,73.7817429 174.655746,73.6037209 174.024662,73.6037209 C173.457937,73.6037209 172.984177,73.7942044 172.603381,74.1769516 C172.224373,74.5614791 172.034869,75.0350176 172.034869,75.6011275 C172.034869,76.5677868 172.889425,77.3599846 174.602113,77.9795011 C175.083024,78.1575231 175.46382,78.2981604 175.740925,78.4031934 C177.088907,78.9390396 178.048942,79.6048418 178.62103,80.4023802 C179.193118,81.1999187 179.479162,82.2644901 179.479162,83.5960945 C179.479162,85.1502264 178.944617,86.4408857 177.875528,87.4698527 C176.804651,88.4970396 175.458457,89.0115231 173.831582,89.0115231 C172.195768,89.0115231 170.874603,88.4703363 169.868086,87.3897429 C168.863356,86.3091495 168.312722,84.8297868 168.216182,82.9516549"/>
      <polygon fill="#0976D1" points="182.181 88.555 182.181 74.076 179.678 74.076 179.678 71.242 182.181 71.242 182.181 65.64 185.342 65.64 185.342 71.242 187.845 71.242 187.845 74.076 185.342 74.076 185.342 88.555"/>
      <path fill="#0976D1" d="M191.412736,79.7885604 C191.412736,81.5402967 192.00449,83.008978 193.184421,84.1963846 C194.367928,85.382011 195.814237,85.9748242 197.525138,85.9748242 C199.087653,85.9748242 200.464239,85.3784505 201.656685,84.1874835 C202.84913,82.9965165 203.446247,81.6043846 203.446247,80.0093077 C203.446247,78.3091978 202.854494,76.852978 201.672775,75.6424286 C200.491056,74.4300989 199.087653,73.823044 197.460778,73.823044 C195.792784,73.823044 194.367928,74.3998352 193.184421,75.5551978 C192.00449,76.7087802 191.412736,78.1204945 191.412736,79.7885604 L191.412736,79.7885604 Z M203.285347,88.5543626 L203.285347,86.4305604 C202.47191,87.2601429 201.565508,87.8867802 200.566142,88.3122527 C199.566776,88.7359451 198.499475,88.9495714 197.366026,88.9495714 C194.712968,88.9495714 192.508642,88.0808242 190.754835,86.3433297 C188.999241,84.6076154 188.123231,82.4321868 188.123231,79.8188242 C188.123231,78.6029341 188.34134,77.4493516 188.781132,76.3580769 C189.219137,75.2668022 189.844858,74.3054835 190.658295,73.4776813 C191.545032,72.5644286 192.517581,71.8897253 193.57058,71.4553516 C194.62358,71.0191978 195.824964,70.802011 197.172946,70.802011 C198.381482,70.802011 199.493478,71.0120769 200.510721,71.4322088 C201.526177,71.8523407 202.452245,72.4860989 203.285347,73.3352637 L203.285347,71.2417253 L206.494403,71.2417253 L206.494403,88.5543626 L203.285347,88.5543626 Z"/>
      <polygon fill="#0976D1" points="210.142 88.555 210.142 74.076 207.639 74.076 207.639 71.242 210.142 71.242 210.142 65.64 213.303 65.64 213.303 71.242 215.806 71.242 215.806 74.076 213.303 74.076 213.303 88.555"/>
      <path fill="#0976D1" d="M230.716782 78.245822C230.319896 76.8180857 229.636966 75.7143495 228.662629 74.932833 227.69008 74.1513165 226.522663 73.7596681 225.163954 73.7596681 223.774853 73.7596681 222.568106 74.1619978 221.547286 74.9648769 220.524679 75.767756 219.822084 76.860811 219.437712 78.245822L230.716782 78.245822zM219.341172 81.0478879C219.607551 82.4952066 220.274391 83.6683714 221.338117 84.5656022 222.401843 85.462833 223.667587 85.9114484 225.133562 85.9114484 226.181198 85.9114484 227.13587 85.6639978 227.997577 85.1708769 228.857497 84.677756 229.54579 83.9799099 230.058881 83.0773385L233.636218 83.0773385C232.824568 84.9981956 231.687544 86.4668769 230.226932 87.4851626 228.76632 88.5016681 227.067934 89.010811 225.133562 89.010811 223.828487 89.010811 222.634253 88.7847231 221.556225 88.3343275 220.474622 87.8839319 219.494921 87.2056681 218.618911 86.3030967 217.794747 85.4539319 217.151149 84.4659099 216.686327 83.3372505 216.219718 82.2103714 215.987307 81.0585692 215.987307 79.881844 215.987307 78.6659538 216.198265 77.5266132 216.621967 76.4673824 217.043882 75.4081516 217.666028 74.4432725 218.490192 73.5727451 219.367989 72.6274484 220.356628 71.9171407 221.457898 71.4400418 222.560954 70.9611626 223.764127 70.7226132 225.069202 70.7226132 226.619203 70.7226132 228.060149 71.0768769 229.393829 71.7854044 230.723933 72.4939319 231.823415 73.4837341 232.690485 74.7512505 233.203577 75.5381077 233.582585 76.4032945 233.829298 77.3414703 234.076011 78.2796462 234.199367 79.3531187 234.199367 80.5601077L234.199367 81.0478879 219.341172 81.0478879zM105.318338 45.3795824L105.316551 45.3795824C103.097922 45.8281978 100.823873 45.9688352 98.5623381 45.7961538 91.9511476 45.2959121 84.2351124 42.1378022 78.4302083 37.5590769 71.8386833 32.3697363 68.4758793 26.1941538 68.9567906 20.1734505 69.8006202 9.44584615 82.0164841 5.40118681 89.2212158 3.94318681 91.765219 3.4287033 94.4093377 3.08334066 97.0784852 2.91243956 97.341288 2.89641758 97.5754865 3.07265934 97.6255442 3.32189011 97.682753 3.57646154 97.5379432 3.82747253 97.2912303 3.9147033 88.6830956 6.93573626 84.3477422 12.457978 83.6522979 21.3056703 83.1785376 27.2765275 85.0914564 32.5904835 89.1783092 36.6707473 93.0881723 40.5712088 98.73754 42.986967 105.08414 43.4676264 106.083506 43.5477363 107.145444 43.545956 108.429066 43.4605055 108.688293 43.4462637 108.92428 43.6207253 108.976125 43.8735165 109.033334 44.1263077 108.888524 44.3755385 108.640024 44.4627692 107.554844 44.8455165 106.437485 45.1534945 105.318338 45.3795824"/>
      <path fill="#0976D1" d="M105.687335,58.3750088 C94.606708,58.3750088 85.000995,45.9330527 82.3211209,42.1180418 C82.1709478,41.9079758 82.2031278,41.6195802 82.3979952,41.4451187 C82.5910749,41.2724374 82.8878455,41.2653165 83.0880762,41.4255363 C90.2266602,47.1916681 97.1274702,47.9749648 105.299388,43.9890527 C110.769978,41.3222835 114.440279,36.9856681 115.913406,31.4509648 C117.320384,26.1583714 116.535551,20.1643714 113.701929,14.5709209 C113.263924,13.7039538 112.718653,12.8102835 111.982089,11.7617341 C111.831916,11.5481077 111.864096,11.2614923 112.058964,11.0870308 C112.252043,10.910789 112.548814,10.9054484 112.750832,11.0692286 C115.423556,13.2250747 117.554583,15.8491187 119.08313,18.8683714 C122.034746,24.6914703 123.230767,32.8057121 122.204585,40.0458659 C121.044319,48.2544593 117.366866,54.2538 111.851582,56.9419319 C109.902908,57.8943495 107.827301,58.3750088 105.687335,58.3750088"/>
      <path fill="#0976D1" d="M85.7257589,19.7898132 L84.9284114,20.7938571 C84.7353317,21.0484286 84.5458276,21.3065604 84.3598991,21.570033 C84.098884,21.934978 83.5947315,22.7342967 83.5947315,22.7342967 C83.5947315,22.7342967 83.4338318,20.9968022 84.3885035,16.783022 C84.4188956,16.6512857 85.1751243,15.4959231 85.6131291,14.8746264 C88.7971556,10.392033 93.6259349,6.48979121 98.9123844,3.81056044 M98.9123844,3.81056044 C103.628534,1.41972527 108.709389,0.00089010989 113.314697,0.00089010989 C117.110142,0.00089010989 120.410374,0.940846154 123.127791,2.79405495 C132.749594,9.36484615 129.923123,23.9056813 124.069949,35.3257912 C123.978772,35.5038132 123.794631,35.6088462 123.597976,35.6088462 C123.544343,35.6088462 123.485346,35.5999451 123.429925,35.5821429 C123.181425,35.5002527 123.033039,35.2492418 123.083097,34.9964505 C124.781483,26.1879231 122.115911,19.7239451 114.694859,14.6574396 C111.11037,12.2096374 107.2309,10.9706044 103.161925,10.9706044 C96.6508495,10.9688242 90.404365,14.1554176 85.7257589,19.7898132"/>
    </g>
  </g>
</svg>
