<?xml version="1.0" encoding="UTF-8"?>
<svg width="50px" height="45px" viewBox="0 0 50 45" version="1.1" xmlns="http://www.w3.org/2000/svg" xmlns:xlink="http://www.w3.org/1999/xlink">
    <!-- Generator: sketchtool 46.2 (44496) - http://www.bohemiancoding.com/sketch -->
    <title>5336DF2C-D620-4C06-9E6A-84E2AD6533FA</title>
    <desc>Created with sketchtool.</desc>
    <defs></defs>
    <g id="Home" stroke="none" stroke-width="1" fill="none" fill-rule="evenodd">
        <g id="HR19---error-en-el-home" transform="translate(-695.000000, -874.000000)">
            <g id="Group-2" transform="translate(695.000000, 874.000000)">
                <g id="Page-1">
                    <path d="M0.120288462,12.6146073 L0.120288462,44.9985864 L24.9645192,44.9985864 L25.0500962,44.9985864 L49.8940865,44.9985864 L49.8940865,12.6054188 L25.7844712,0.681832461 L25.0500962,0.317827225 L25.0500962,0.191544503 L25.0323077,0.158324607 L0.120288462,12.6146073 Z M6.50923077,16.449267 L24.9645192,7.22143979 L24.9645192,7.29 L43.5046635,16.4591623 L43.5046635,38.7372251 L25.0500962,38.7372251 L24.9645192,38.7372251 L6.50923077,38.7372251 L6.50923077,16.449267 Z" id="Fill-1" fill="#8F8F8F"></path>
                    <path d="M43.5047115,38.7374136 L25.0499038,38.7374136 L24.9645673,38.7374136 L6.50927885,38.7374136 L6.50927885,16.4492199 L24.9645673,7.22139267 L24.9645673,7.28995288 L43.5047115,16.4591152 L43.5047115,38.7374136 Z M25.7845192,0.682020942 L25.0499038,0.318015707 L25.0499038,0.191497382 L25.0323558,0.158041885 L0.120096154,12.6147958 L0.120096154,44.9985393 L24.9645673,44.9985393 L25.0499038,44.9985393 L49.8938942,44.9985393 L49.8938942,12.6056073 L25.7845192,0.682020942 Z" id="Stroke-2"></path>
                </g>
                <path d="M31.8659565,32.2190706 L28.1430843,28.4961985 C29.0336579,27.4548069 29.520576,26.1451757 29.520576,24.7602118 C29.520576,23.2215324 28.9212688,21.7751127 27.833366,20.68721 C26.7453108,19.5991547 25.2987386,19 23.7602118,19 C22.2215324,19 20.7751127,19.5993072 19.68721,20.68721 C18.5991547,21.7751127 18,23.2215324 18,24.7602118 C18,26.2988911 18.5993072,27.7453108 19.68721,28.833366 C20.7751127,29.9214213 22.2215324,30.520576 23.7602118,30.520576 C25.1451757,30.520576 26.4546544,30.0336579 27.4961985,29.1430843 L31.2190706,32.8659565 C31.308433,32.9553188 31.4255495,33 31.5425136,33 C31.6594776,33 31.7765941,32.9553188 31.8659565,32.8659565 C32.0446812,32.6875368 32.0446812,32.3977954 31.8659565,32.2190706 Z M23.7602118,29.6057556 C22.4659826,29.6057556 21.2492212,29.1016056 20.3340958,28.1864802 C19.4188179,27.2712023 18.9148204,26.0544409 18.9148204,24.7602118 C18.9148204,23.4659826 19.4188179,22.2492212 20.3340958,21.3340958 C21.2492212,20.4189704 22.4658301,19.9148204 23.7602118,19.9148204 C25.0542884,19.9148204 26.2712023,20.4189704 27.1864802,21.3342483 C28.1016056,22.2492212 28.6057556,23.4659826 28.6057556,24.7602118 C28.6057556,26.0544409 28.1016056,27.2712023 27.1864802,28.1864802 C26.2712023,29.1016056 25.0542884,29.6057556 23.7602118,29.6057556 Z" id="search-copy" stroke="#8F8F8F" stroke-width="2" fill="#8F8F8F" fill-rule="nonzero"></path>
            </g>
        </g>
    </g>
</svg>