<svg xmlns="http://www.w3.org/2000/svg" width="300" height="127" viewBox="0 0 300 127">
  <g fill="#FFFFFF" fill-rule="evenodd">
    <path d="M9.42787037,109.749443 C9.42787037,110.218791 9.51305556,110.390885 9.81490741,110.519725 C10.719537,110.81974 12.0102778,110.94766 13.0871296,110.94766 C14.8084259,110.94766 15.3686111,110.776486 16.1426852,110.218791 C17.4343519,109.280095 18.6825,107.311595 18.6825,103.80345 C18.6825,97.7267761 14.6362037,95.9727036 12.0963889,95.9727036 C11.020463,95.9727036 10.245463,96.015037 9.81490741,96.1438775 C9.51305556,96.2294645 9.42787037,96.4006384 9.42787037,96.7420659 L9.42787037,109.749443 Z M4.34824074,106.370138 C4.34824074,99.86645 4.34824074,98.6673123 4.26212963,97.2997616 C4.17601852,95.843863 3.83157407,95.1591674 2.4112037,94.8591529 C2.06675926,94.7735659 1.33435185,94.7312326 0.731574074,94.7312326 C0.258425926,94.7312326 9.25925926e-05,94.6465659 9.25925926e-05,94.3465514 C9.25925926e-05,94.046537 0.301018519,93.96095 0.947314815,93.96095 C3.2287963,93.96095 5.94083333,94.0897906 6.84453704,94.0897906 C8.30842593,94.0897906 11.5797222,93.96095 12.9139815,93.96095 C15.6260185,93.96095 18.5112037,94.2186312 20.8352778,95.8006094 C22.0408333,96.6132254 23.7621296,98.7961529 23.7621296,101.662856 C23.7621296,104.828653 22.4278704,107.737689 18.0806481,111.245834 C21.9112037,116.038704 24.8815741,119.846863 27.4213889,122.499138 C29.8315741,124.98024 31.5963889,125.280254 32.2426852,125.409095 C32.7167593,125.494682 33.1037963,125.537936 33.4473148,125.537936 C33.7917593,125.537936 33.9649074,125.666776 33.9649074,125.879363 C33.9649074,126.221711 33.6630556,126.307298 33.1463889,126.307298 L29.0575,126.307298 C26.6463889,126.307298 25.570463,126.093791 24.4510185,125.494682 C22.6000926,124.510892 20.9639815,122.499138 18.5537963,119.205421 C16.8315741,116.85132 14.8519444,113.941363 14.2917593,113.300841 C14.0760185,113.04316 13.8186111,113.000827 13.5176852,113.000827 L9.77231481,112.91616 C9.55657407,112.91616 9.42787037,113.000827 9.42787037,113.257588 L9.42787037,113.857617 C9.42787037,117.83603 9.42787037,121.215334 9.64268519,123.01174 C9.77231481,124.253211 10.0297222,125.194667 11.3213889,125.366762 C11.9676852,125.452349 12.9139815,125.537936 13.4315741,125.537936 C13.7750926,125.537936 13.9482407,125.666776 13.9482407,125.879363 C13.9482407,126.179378 13.645463,126.307298 13.0871296,126.307298 C10.5899074,126.307298 7.4037963,126.179378 6.75842593,126.179378 C5.94083333,126.179378 3.2287963,126.307298 1.50657407,126.307298 C0.947314815,126.307298 0.646388889,126.179378 0.646388889,125.879363 C0.646388889,125.666776 0.817685185,125.537936 1.33435185,125.537936 C1.98064815,125.537936 2.49731481,125.452349 2.88435185,125.366762 C3.74546296,125.194667 3.96027778,124.253211 4.1325,123.01174 C4.34824074,121.215334 4.34824074,117.83603 4.34824074,113.89903 L4.34824074,106.370138 Z"/>
    <path d="M36.8587963 106.369954C36.8587963 99.8662659 36.8587963 98.6680486 36.7726852 97.2995775 36.6865741 95.843679 36.3421296 95.1599036 34.9217593 94.8598891 34.5773148 94.7733819 33.8449074 94.7310486 33.2421296 94.7310486 32.7689815 94.7310486 32.5106481 94.6473022 32.5106481 94.3472877 32.5106481 94.0463529 32.8115741 93.9607659 33.4578704 93.9607659 34.6208333 93.9607659 35.8689815 94.0040196 36.9439815 94.0040196 38.0634259 94.0463529 39.0541667 94.0896065 39.6569444 94.0896065 41.0347222 94.0896065 49.600463 94.0896065 50.4180556 94.0463529 51.2365741 93.9607659 51.925463 93.875179 52.2699074 93.789592 52.4847222 93.748179 52.7430556 93.6202587 52.9587963 93.6202587 53.1736111 93.6202587 53.2162037 93.789592 53.2162037 94.0040196 53.2162037 94.3040341 53.0013889 94.8166355 52.8726852 96.7851355 52.8291667 97.2139906 52.7430556 99.0959833 52.6569444 99.6095051 52.6134259 99.8230123 52.5273148 100.080693 52.2263889 100.080693 51.925463 100.080693 51.8393519 99.8662659 51.8393519 99.4806645 51.8393519 99.1824906 51.7958333 98.453621 51.5810185 97.9410196 51.2791667 97.170737 50.8486111 96.6562949 48.6967593 96.4013746 47.9643519 96.3148674 43.4449074 96.2292804 42.5837963 96.2292804 42.3689815 96.2292804 42.2828704 96.358121 42.2828704 96.6562949L42.2828704 107.480744C42.2828704 107.780759 42.325463 107.952853 42.5837963 107.952853 43.5310185 107.952853 48.4810185 107.952853 49.4717593 107.866346 50.5050926 107.780759 51.150463 107.652838 51.5384259 107.225824 51.8393519 106.882556 52.0115741 106.668128 52.2263889 106.668128 52.3986111 106.668128 52.5273148 106.753715 52.5273148 107.011396 52.5273148 107.268157 52.3560185 107.952853 52.1828704 110.13486 52.1402778 110.99073 52.0115741 112.702469 52.0115741 113.000643 52.0115741 113.342991 52.0115741 113.815099 51.6236111 113.815099 51.3226852 113.815099 51.2365741 113.643005 51.2365741 113.429498 51.1930556 113.000643 51.1930556 112.444788 51.0643519 111.888933 50.8486111 111.033983 50.2458333 110.390701 48.6532407 110.219527 47.8356481 110.13486 43.5736111 110.092527 42.5402778 110.092527 42.325463 110.092527 42.2828704 110.26186 42.2828704 110.519541L42.2828704 113.898846C42.2828704 115.354744 42.2393519 119.291744 42.2828704 120.531375 42.3689815 123.483664 43.0569444 124.125107 47.4486111 124.125107 48.5671296 124.125107 50.375463 124.125107 51.4949074 123.612505 52.6134259 123.098063 53.1300926 122.19986 53.4319444 120.444867 53.5180556 119.97552 53.6041667 119.804346 53.9060185 119.804346 54.249537 119.804346 54.249537 120.146693 54.249537 120.573708 54.249537 121.558418 53.9060185 124.467454 53.6902778 125.323324 53.3893519 126.435954 53.0013889 126.435954 51.3652778 126.435954 48.1365741 126.435954 45.7689815 126.350367 43.9180556 126.308034 42.0671296 126.222447 40.7328704 126.179193 39.4412037 126.179193 38.9680556 126.179193 38.0208333 126.179193 36.9875 126.222447 35.9967593 126.222447 34.8782407 126.308034 34.0171296 126.308034 33.4578704 126.308034 33.1569444 126.179193 33.1569444 125.879179 33.1569444 125.666592 33.3282407 125.537751 33.8449074 125.537751 34.4912037 125.537751 35.0078704 125.452164 35.3949074 125.366578 36.2560185 125.194483 36.4708333 124.253947 36.6430556 123.012476 36.8587963 121.21515 36.8587963 117.835846 36.8587963 113.898846L36.8587963 106.369954zM66.4831481 120.488213C66.5692593 123.827025 67.1294444 124.937814 67.9905556 125.237829 68.7211111 125.49459 69.5396296 125.537843 70.2285185 125.537843 70.7016667 125.537843 70.9609259 125.62343 70.9609259 125.879271 70.9609259 126.221619 70.572963 126.308126 69.9701852 126.308126 67.172037 126.308126 65.4507407 126.179286 64.6322222 126.179286 64.2451852 126.179286 62.222037 126.308126 59.9840741 126.308126 59.4238889 126.308126 59.0368519 126.264872 59.0368519 125.879271 59.0368519 125.62343 59.2942593 125.537843 59.7248148 125.537843 60.285 125.537843 61.0590741 125.49459 61.6627778 125.323416 62.7812963 124.980148 62.9535185 123.740517 62.997037 120.018865L63.3840741 94.687887C63.3840741 93.8320174 63.5137037 93.233829 63.9442593 93.233829 64.4174074 93.233829 64.8044444 93.7896841 65.5359259 94.560887 66.0525926 95.116742 72.5961111 102.089778 78.8803704 108.295293 81.8081481 111.203409 87.6192593 117.36567 88.3516667 118.050365L88.5664815 118.050365 88.1359259 98.8393145C88.0933333 96.2293725 87.7062963 95.4167565 86.672037 94.9879014 86.0275926 94.7311406 84.9942593 94.7311406 84.3905556 94.7311406 83.8748148 94.7311406 83.7025926 94.6041406 83.7025926 94.3464594 83.7025926 94.0041116 84.1766667 93.960858 84.8211111 93.960858 87.0609259 93.960858 89.1266667 94.0896986 90.0303704 94.0896986 90.5044444 94.0896986 92.1405556 93.960858 94.2488889 93.960858 94.8090741 93.960858 95.2396296 94.0041116 95.2396296 94.3464594 95.2396296 94.6041406 94.9803704 94.7311406 94.4637037 94.7311406 94.0340741 94.7311406 93.6896296 94.7311406 93.172963 94.8599812 91.9674074 95.202329 91.6238889 96.1014522 91.5803704 98.4960464L91.1072222 125.49459C91.1072222 126.436046 90.9340741 126.820728 90.547037 126.820728 90.0738889 126.820728 89.5572222 126.350459 89.0831481 125.879271 86.3711111 123.312583 80.8609259 117.707097 76.385 113.300749 71.6924074 108.679974 66.9137037 103.331249 66.1387037 102.518633L66.01 102.518633 66.4831481 120.488213zM110.577315 96.358213L104.163426 96.5275464C101.66713 96.6131333 100.633796 96.8275609 99.9875 97.7690174 99.5569444 98.4104594 99.3421296 98.9249014 99.2560185 99.266329 99.1699074 99.6095971 99.0402778 99.780771 98.7828704 99.780771 98.4810185 99.780771 98.3949074 99.5663435 98.3949074 99.0960754 98.3949074 98.4104594 99.2125 94.5185536 99.299537 94.1752855 99.4273148 93.6203507 99.5569444 93.3626696 99.8162037 93.3626696 100.159722 93.3626696 100.590278 93.7896841 101.66713 93.875271 102.915278 94.0041116 104.550463 94.0896986 105.970833 94.0896986L123.018056 94.0896986C124.395833 94.0896986 125.343056 93.960858 125.988426 93.875271 126.633796 93.748271 126.978241 93.6626841 127.150463 93.6626841 127.451389 93.6626841 127.494907 93.9185246 127.494907 94.560887 127.494907 95.4600101 127.366204 98.4104594 127.366204 99.5230899 127.323611 99.9519449 127.236574 100.207786 126.978241 100.207786 126.633796 100.207786 126.547685 99.9951986 126.504167 99.3519159L126.4625 98.8825681C126.376389 97.7690174 125.213426 96.5708 121.38287 96.4870536L115.95787 96.358213 115.95787 113.898938C115.95787 117.835938 115.95787 121.215242 116.173611 123.054901 116.303241 124.254039 116.560648 125.194575 117.852315 125.36667 118.455093 125.452257 119.402315 125.537843 120.048611 125.537843 120.520833 125.537843 120.736574 125.666684 120.736574 125.879271 120.736574 126.179286 120.39213 126.308126 119.918981 126.308126 117.077315 126.308126 114.365278 126.179286 113.160648 126.179286 112.170833 126.179286 109.458796 126.308126 107.735648 126.308126 107.177315 126.308126 106.875463 126.179286 106.875463 125.879271 106.875463 125.666684 107.047685 125.537843 107.564352 125.537843 108.209722 125.537843 108.726389 125.452257 109.113426 125.36667 109.974537 125.194575 110.23287 124.254039 110.3625 123.012568 110.577315 121.215242 110.577315 117.835938 110.577315 113.898938L110.577315 96.358213zM143.345833 113.000367C143.560648 113.000367 143.604167 112.873367 143.560648 112.745446L139.686574 102.175917C139.643981 102.004743 139.600463 101.792157 139.470833 101.792157 139.34213 101.792157 139.256019 102.004743 139.213426 102.175917L135.252315 112.702193C135.208796 112.873367 135.252315 113.000367 135.424537 113.000367L143.345833 113.000367zM134.564352 115.140041C134.348611 115.140041 134.263426 115.225628 134.176389 115.483309L131.852315 121.601396C131.421759 122.670772 131.206019 123.697816 131.206019 124.210417 131.206019 124.9807 131.593056 125.537475 132.927315 125.537475L133.573611 125.537475C134.090278 125.537475 134.219907 125.623983 134.219907 125.878903 134.219907 126.222171 133.960648 126.307758 133.4875 126.307758 132.109722 126.307758 130.258796 126.178917 128.924537 126.178917 128.450463 126.178917 126.08287 126.307758 123.844907 126.307758 123.284722 126.307758 123.027315 126.222171 123.027315 125.878903 123.027315 125.623983 123.199537 125.537475 123.543981 125.537475 123.931019 125.537475 124.533796 125.495142 124.878241 125.451888 126.858796 125.195128 127.676389 123.74107 128.5375 121.601396L139.34213 94.7307725C139.858796 93.491142 140.11713 93.0199536 140.547685 93.0199536 140.934722 93.0199536 141.193056 93.4055551 141.623611 94.3893449 142.656944 96.7425261 149.543981 114.198584 152.300463 120.702272 153.935648 124.553686 155.18287 125.151874 156.088426 125.366301 156.733796 125.495142 157.379167 125.537475 157.896759 125.537475 158.239352 125.537475 158.455093 125.580729 158.455093 125.878903 158.455093 126.222171 158.06713 126.307758 156.474537 126.307758 154.925463 126.307758 151.78287 126.307758 148.339352 126.222171 147.564352 126.178917 147.047685 126.178917 147.047685 125.878903 147.047685 125.623983 147.219907 125.537475 147.649537 125.495142 147.952315 125.409555 148.253241 125.023033 148.038426 124.510432L144.593981 115.440055C144.50787 115.225628 144.378241 115.140041 144.163426 115.140041L134.564352 115.140041zM168.364907 113.898846C168.364907 119.375491 168.364907 122.32778 169.268611 123.098063 170.001944 123.740425 171.120463 124.03952 174.478796 124.03952 176.759352 124.03952 178.438056 123.996266 179.514907 122.842222 180.0325 122.285447 180.548241 121.08815 180.634352 120.273693 180.676944 119.889933 180.763981 119.632251 181.108426 119.632251 181.408426 119.632251 181.451944 119.846679 181.451944 120.35928 181.451944 120.831389 181.151944 124.03952 180.806574 125.280991 180.548241 126.222447 180.3325 126.435954 178.094537 126.435954 174.994537 126.435954 172.7575 126.350367 170.819537 126.308034 168.8825 126.222447 167.333426 126.179193 165.566759 126.179193 165.093611 126.179193 164.147315 126.179193 163.113981 126.222447 162.123241 126.222447 161.003796 126.308034 160.142685 126.308034 159.584352 126.308034 159.2825 126.179193 159.2825 125.879179 159.2825 125.666592 159.454722 125.537751 159.972315 125.537751 160.617685 125.537751 161.133426 125.452164 161.521389 125.366578 162.3825 125.194483 162.598241 124.253947 162.770463 123.012476 162.984352 121.21515 162.984352 117.835846 162.984352 113.898846L162.984352 106.369954C162.984352 99.8662659 162.984352 98.6680486 162.898241 97.2995775 162.813981 95.843679 162.468611 95.1599036 161.047315 94.8598891 160.703796 94.7733819 160.186204 94.7310486 159.626944 94.7310486 159.15287 94.7310486 158.895463 94.6473022 158.895463 94.3472877 158.895463 94.0463529 159.195463 93.9607659 159.842685 93.9607659 161.866759 93.9607659 164.578796 94.0896065 165.738981 94.0896065 166.772315 94.0896065 169.915833 93.9607659 171.594537 93.9607659 172.196389 93.9607659 172.498241 94.0463529 172.498241 94.3472877 172.498241 94.6473022 172.239907 94.7310486 171.724167 94.7310486 171.249167 94.7310486 170.561204 94.7733819 170.045463 94.8598891 168.8825 95.0733964 168.53713 95.8004254 168.451019 97.2995775 168.364907 98.6680486 168.364907 99.8662659 168.364907 106.369954L168.364907 113.898846zM226.405926 110.948028C226.405926 101.363209 220.853148 95.4172167 213.792037 95.4172167 208.842037 95.4172167 203.203148 98.155079 203.203148 108.808354 203.203148 117.706637 208.154074 124.768021 216.418889 124.768021 219.430926 124.768021 226.405926 123.312122 226.405926 110.948028M197.261481 110.135412C197.261481 102.819108 202.126296 93.3622094 215.041111 93.3622094 225.758704 93.3622094 232.431852 99.5658833 232.431852 109.363289 232.431852 119.162536 225.544815 126.905854 214.611481 126.905854 202.255926 126.905854 197.261481 117.706637 197.261481 110.135412M243.852778 120.488213C243.938889 123.827025 244.498148 124.937814 245.358333 125.237829 246.089815 125.49459 246.908333 125.537843 247.598148 125.537843 248.07037 125.537843 248.32963 125.62343 248.32963 125.879271 248.32963 126.221619 247.941667 126.308126 247.338889 126.308126 244.540741 126.308126 242.819444 126.179286 242.001852 126.179286 241.613889 126.179286 239.589815 126.308126 237.352778 126.308126 236.791667 126.308126 236.405556 126.264872 236.405556 125.879271 236.405556 125.62343 236.663889 125.537843 237.093519 125.537843 237.652778 125.537843 238.428704 125.49459 239.031481 125.323416 240.150926 124.980148 240.323148 123.740517 240.364815 120.018865L240.752778 94.687887C240.752778 93.8320174 240.882407 93.233829 241.311111 93.233829 241.786111 93.233829 242.174074 93.7896841 242.905556 94.560887 243.421296 95.116742 249.964815 102.089778 256.249074 108.295293 259.176852 111.203409 264.988889 117.36567 265.72037 118.050365L265.936111 118.050365 265.50463 98.8393145C265.462037 96.2293725 265.075 95.4167565 264.041667 94.9879014 263.39537 94.7311406 262.363889 94.7311406 261.759259 94.7311406 261.243519 94.7311406 261.071296 94.6041406 261.071296 94.3464594 261.071296 94.0041116 261.544444 93.960858 262.190741 93.960858 264.428704 93.960858 266.49537 94.0896986 267.399074 94.0896986 267.874074 94.0896986 269.509259 93.960858 271.616667 93.960858 272.177778 93.960858 272.607407 94.0041116 272.607407 94.3464594 272.607407 94.6041406 272.35 94.7311406 271.832407 94.7311406 271.402778 94.7311406 271.058333 94.7311406 270.542593 94.8599812 269.336111 95.202329 268.991667 96.1014522 268.948148 98.4960464L268.475926 125.49459C268.475926 126.436046 268.302778 126.820728 267.914815 126.820728 267.442593 126.820728 266.926852 126.350459 266.451852 125.879271 263.739815 123.312583 258.22963 117.707097 253.753704 113.300749 249.061111 108.679974 244.282407 103.331249 243.507407 102.518633L243.378704 102.518633 243.852778 120.488213zM282.220278 106.369954C282.220278 99.8662659 282.220278 98.6680486 282.134167 97.2995775 282.048056 95.843679 281.704537 95.1599036 280.283241 94.8598891 279.939722 94.7733819 279.208241 94.7310486 278.604537 94.7310486 278.131389 94.7310486 277.873056 94.6473022 277.873056 94.3472877 277.873056 94.0463529 278.174907 93.9607659 278.820278 93.9607659 279.983241 93.9607659 281.230463 94.0040196 282.306389 94.0040196 283.425833 94.0463529 284.416574 94.0896065 285.018426 94.0896065 286.39713 94.0896065 294.961944 94.0896065 295.781389 94.0463529 296.598981 93.9607659 297.28787 93.875179 297.632315 93.789592 297.846204 93.748179 298.105463 93.6202587 298.321204 93.6202587 298.536944 93.6202587 298.577685 93.789592 298.577685 94.0040196 298.577685 94.3040341 298.363796 94.8166355 298.235093 96.7851355 298.191574 97.2139906 298.105463 99.0959833 298.019352 99.6095051 297.975833 99.8230123 297.889722 100.080693 297.589722 100.080693 297.28787 100.080693 297.201759 99.8662659 297.201759 99.4806645 297.201759 99.1824906 297.158241 98.453621 296.9425 97.9410196 296.6425 97.170737 296.211019 96.6562949 294.058241 96.4013746 293.326759 96.3148674 288.806389 96.2292804 287.946204 96.2292804 287.730463 96.2292804 287.644352 96.358121 287.644352 96.6562949L287.644352 107.480744C287.644352 107.780759 287.686944 107.952853 287.946204 107.952853 288.893426 107.952853 293.844352 107.952853 294.834167 107.866346 295.866574 107.780759 296.51287 107.652838 296.899907 107.225824 297.201759 106.882556 297.373981 106.668128 297.589722 106.668128 297.760093 106.668128 297.889722 106.753715 297.889722 107.011396 297.889722 107.268157 297.7175 107.952853 297.546204 110.13486 297.503611 110.99073 297.373981 112.702469 297.373981 113.000643 297.373981 113.342991 297.373981 113.815099 296.986019 113.815099 296.686019 113.815099 296.598981 113.643005 296.598981 113.429498 296.556389 113.000643 296.556389 112.444788 296.426759 111.888933 296.211019 111.033983 295.609167 110.390701 294.014722 110.219527 293.19713 110.13486 288.936019 110.092527 287.902685 110.092527 287.686944 110.092527 287.644352 110.26186 287.644352 110.519541L287.644352 113.898846C287.644352 115.354744 287.600833 119.291744 287.644352 120.531375 287.730463 123.483664 288.420278 124.125107 292.811019 124.125107 293.930463 124.125107 295.738796 124.125107 296.856389 123.612505 297.975833 123.098063 298.493426 122.19986 298.793426 120.444867 298.879537 119.97552 298.966574 119.804346 299.268426 119.804346 299.611019 119.804346 299.611019 120.146693 299.611019 120.573708 299.611019 121.558418 299.268426 124.467454 299.052685 125.323324 298.750833 126.435954 298.363796 126.435954 296.728611 126.435954 293.498981 126.435954 291.132315 126.350367 289.281389 126.308034 287.430463 126.222447 286.095278 126.179193 284.804537 126.179193 284.330463 126.179193 283.383241 126.179193 282.349907 126.222447 281.359167 126.222447 280.239722 126.308034 279.378611 126.308034 278.820278 126.308034 278.518426 126.179193 278.518426 125.879179 278.518426 125.666592 278.690648 125.537751 279.208241 125.537751 279.853611 125.537751 280.369352 125.452164 280.757315 125.366578 281.618426 125.194483 281.834167 124.253947 282.006389 123.012476 282.220278 121.21515 282.220278 117.835846 282.220278 113.898846L282.220278 106.369954zM123.568611 28.3073797L123.568611 16.2276551C123.568611 14.0152783 123.568611 12.9090899 122.176944 12.9090899 120.413981 12.9090899 113.456574 16.5046623 111.414907 17.3347638 110.951019 17.5188217 110.48713 17.7038 110.115833 17.7038 109.838056 17.7038 109.374167 17.2427348 109.374167 16.6887203 109.374167 16.1356261 109.838056 15.6754812 110.301944 15.3984739 110.673241 15.2144159 128.485278 3.59575652 131.7325 1.19840145 132.566759.645307246 133.40287.000184057971 134.144537.000184057971 134.979722.000184057971 135.2575 1.01342319 135.2575 1.93555362 135.2575 2.67362609 134.701019 11.8019812 134.701019 25.9100246L134.701019 41.9681623C134.701019 50.8195101 134.701019 58.6576188 135.072315 62.7151768 135.350093 65.6656261 135.813981 67.0488217 138.783426 67.6939449 140.175093 67.9709522 142.663056 68.2470391 143.404722 68.2470391 143.776944 68.2470391 144.239907 68.5240464 144.239907 69.1691696 144.239907 69.815213 143.776944 69.999271 142.755648 69.999271 135.704722 69.999271 131.268611 69.7231841 128.763981 69.7231841 126.629722 69.7231841 121.088056 69.999271 115.150093 69.999271 114.130648 69.999271 113.573241 69.815213 113.573241 69.1691696 113.573241 68.5240464 113.945463 68.2470391 114.315833 68.2470391 115.336204 68.2470391 117.816759 67.9709522 119.486204 67.6019159 122.454722 66.9567928 122.918611 65.6656261 123.197315 62.7151768 123.568611 58.6576188 123.753796 50.8195101 123.661204 41.9681623L123.568611 28.3073797zM189.123889 68.3395283C188.381296 68.3395283 187.547037 68.246579 186.525741 68.062521 185.134074 67.7864341 181.331296 67.1403906 176.135926 61.7925862 170.662778 56.0757457 164.260926 47.869521 156.004444 37.5420283 165.373889 29.9809268 168.249815 23.710992 168.249815 16.887963 168.249815 10.7100572 164.538704 6.00737609 161.941481 4.2551442 156.932222.84362971 150.715556.290535507 144.872037.290535507 143.390556.290535507 140.804444.363238406 138.211852.435021014L138.211852 4.98861522C139.143333 4.71528913 140.803519 4.62418043 143.108148 4.62418043 148.582222 4.62418043 157.302593 8.40473116 157.302593 21.4976949 157.302593 29.0587964 154.869259 33.4688254 151.829444 35.3296514 147.640556 37.8926587 142.953519 36.842608 142.953519 36.842608 142.953519 36.842608 153.313704 49.6217529 157.023889 54.69255 162.220185 61.7925862 165.745185 66.1262312 169.734074 68.246579 172.146111 69.5386659 174.465556 69.9997312 179.660926 69.9997312L188.474815 69.9997312C189.587778 69.9997312 190.236852 69.8156732 190.236852 69.0776007 190.236852 68.6165355 189.866481 68.3395283 189.123889 68.3395283"/>
  </g>
</svg>
