<svg xmlns="http://www.w3.org/2000/svg" width="60" height="60" viewBox="0 0 60 60">
    <g fill="none" fill-rule="nonzero">
        <path fill="#FFDA44" d="M0 29.855c0 3.652.657 7.15 1.857 10.384l27.998 2.596 27.998-2.596a29.79 29.79 0 0 0 1.857-10.384c0-3.652-.657-7.15-1.857-10.384l-27.998-2.596L1.857 19.47A29.79 29.79 0 0 0 0 29.855z"/>
        <g fill="#D80027">
            <path d="M57.853 19.47C53.635 8.103 42.692 0 29.855 0 17.018 0 6.075 8.102 1.857 19.47h55.996zM1.857 40.24c4.218 11.368 15.161 19.47 27.998 19.47 12.837 0 23.78-8.102 27.998-19.47H1.857z"/>
        </g>
    </g>
</svg>
