<?xml version="1.0" encoding="UTF-8"?>
<svg width="54px" height="54px" viewBox="0 0 54 54" version="1.1" xmlns="http://www.w3.org/2000/svg" xmlns:xlink="http://www.w3.org/1999/xlink">
    <!-- Generator: sketchtool 46.2 (44496) - http://www.bohemiancoding.com/sketch -->
    <title>38986AAE-E7EC-4B2F-BCE7-411072FFDA9D</title>
    <desc>Created with sketchtool.</desc>
    <defs></defs>
    <g id="Blog" stroke="none" stroke-width="1" fill="none" fill-rule="evenodd">
        <g id="MRE---ebook-tablet-3" transform="translate(-357.000000, -1129.000000)" stroke="#7ED321" stroke-width="4" fill="#7ED321" fill-rule="nonzero">
            <g id="check" transform="translate(359.000000, 1131.000000)">
                <path d="M25,0 C11.2153846,0 0,11.2144231 0,25 C0,38.7855769 11.2153846,50 25,50 C38.7846154,50 50,38.7855769 50,25 C50,11.2144231 38.7846154,0 25,0 Z M25,48.0769231 C12.2759615,48.0769231 1.92307692,37.7240385 1.92307692,25 C1.92307692,12.2759615 12.2759615,1.92307692 25,1.92307692 C37.7240385,1.92307692 48.0769231,12.2759615 48.0769231,25 C48.0769231,37.7240385 37.7240385,48.0769231 25,48.0769231 Z" id="Shape"></path>
                <path d="M37.1012878,14.7230081 L22.1718708,31.3210141 L13.1776961,24.2104629 C12.7599949,23.8792708 12.1470427,23.9474291 11.8128818,24.3602193 C11.4777495,24.7749295 11.5457473,25.3787552 11.9644199,25.7099473 L21.6784006,33.389765 C21.8571379,33.5308816 22.0718168,33.6 22.2855244,33.6 C22.5536303,33.6 22.8207648,33.4905626 23.0121302,33.2774477 L38.5544994,15.9978578 C38.9110025,15.6023472 38.8750607,14.9946817 38.4738733,14.64333 C38.0717145,14.2900584 37.4587623,14.3255775 37.1012878,14.7230081 Z" id="Shape"></path>
            </g>
        </g>
    </g>
</svg>