<svg xmlns="http://www.w3.org/2000/svg" width="30" height="30" viewBox="0 0 30 30">
    <path fill="#FFF" fill-rule="evenodd" d="M30 24.141c0 .674-.236 1.246-.707 1.718l-3.434 3.434A2.338 2.338 0 0 1 24.14 30a2.338 2.338 0 0 1-1.717-.707L15 21.869l-7.424 7.424A2.338 2.338 0 0 1 5.859 30a2.338 2.338 0 0 1-1.718-.707L.707 25.859A2.338 2.338 0 0 1 0 24.14c0-.673.236-1.245.707-1.717L8.131 15 .707 7.576A2.338 2.338 0 0 1 0 5.859c0-.674.236-1.246.707-1.718L4.141.707A2.338 2.338 0 0 1 5.86 0c.673 0 1.245.236 1.717.707L15 8.131 22.424.707A2.338 2.338 0 0 1 24.141 0c.674 0 1.246.236 1.718.707l3.434 3.434c.471.472.707 1.044.707 1.718 0 .673-.236 1.245-.707 1.717L21.869 15l7.424 7.424c.471.472.707 1.044.707 1.717z"/>
</svg>
