<?xml version="1.0" encoding="UTF-8"?>
<svg width="56px" height="56px" viewBox="0 0 56 56" version="1.1" xmlns="http://www.w3.org/2000/svg" xmlns:xlink="http://www.w3.org/1999/xlink">
    <!-- Generator: sketchtool 46.2 (44496) - http://www.bohemiancoding.com/sketch -->
    <title>D63A1481-8944-493D-92CD-D6EA2EAAA837</title>
    <desc>Created with sketchtool.</desc>
    <defs></defs>
    <g id="Blog" stroke="none" stroke-width="1" fill="none" fill-rule="evenodd">
        <g id="MRE---Blog-detail-desktop-reply" transform="translate(-657.000000, -1591.000000)">
            <g id="Group-7" transform="translate(658.000000, 1592.000000)">
                <path d="M38.8803017,37.5002677 C38.8803017,38.2621118 38.2627758,38.8803017 37.5009109,38.8803017 L31.1316113,38.8803017 L31.1316113,29.2010002 L34.3806009,29.2010002 L34.8674047,25.4292248 L31.1316113,25.4292248 L31.1316113,23.0204629 C31.1316113,21.9284182 31.4352679,21.1842755 33.0012101,21.1842755 L34.9988077,21.1835946 L34.9988077,17.8094216 C34.6529387,17.7638062 33.4675885,17.6610015 32.0881977,17.6610015 C29.2082258,17.6610015 27.2365004,19.418894 27.2365004,22.6473703 L27.2365004,25.4292248 L23.9793406,25.4292248 L23.9793406,29.2010002 L27.2365004,29.2010002 L27.2365004,38.8803017 L15.2652128,38.8803017 C14.5033479,38.8803017 13.885822,38.2621118 13.885822,37.5002677 L13.885822,15.2658561 C13.885822,14.5033311 14.5033479,13.885822 15.2652128,13.885822 L37.5009109,13.885822 C38.2627758,13.885822 38.8803017,14.5033311 38.8803017,15.2658561 L38.8803017,37.5002677" id="Facebook" fill="#0976D1" opacity="0.787420743"></path>
                <circle id="Oval-4-Copy" stroke="#0976D1" cx="26.8778113" cy="26.8778113" r="26.8778113"></circle>
            </g>
        </g>
    </g>
</svg>