<?xml version="1.0" encoding="UTF-8"?>
<svg width="56px" height="56px" viewBox="0 0 56 56" version="1.1" xmlns="http://www.w3.org/2000/svg" xmlns:xlink="http://www.w3.org/1999/xlink">
    <!-- Generator: sketchtool 46.2 (44496) - http://www.bohemiancoding.com/sketch -->
    <title>FF3220FD-A9FB-4A22-802F-9F9A3999154B</title>
    <desc>Created with sketchtool.</desc>
    <defs></defs>
    <g id="Blog" stroke="none" stroke-width="1" fill="none" fill-rule="evenodd">
        <g id="MRE---Blog-detail-desktop-reply" transform="translate(-588.000000, -1591.000000)">
            <g id="Group-8" transform="translate(589.000000, 1592.000000)">
                <path d="M21.7591688,24.4582757 L30.6540025,24.4582757 C31.2732951,29.1163718 29.4045779,36.1031373 21.7591688,36.1031373 C16.6444046,36.1031373 12.4972398,31.7508873 12.4972398,26.3826834 C12.4972398,21.0144794 16.6444046,16.6629864 21.7591688,16.6629864 C24.1590179,16.6629864 26.3456917,17.620648 27.9911167,19.1922728 C26.0530271,21.1136522 26.1166184,21.227966 25.354968,22.0274052 C24.4032664,21.2014694 23.3655719,20.6087034 21.7591688,20.6087034 C18.7205161,20.6087034 16.3488495,23.1940111 16.3488495,26.3826834 C16.3488495,29.5721127 18.7205161,32.1574203 21.7591688,32.1574203 C24.7616901,32.1574203 25.9814869,30.7985251 26.7662614,28.3025487 C25.3173914,28.3025487 21.7591688,28.307848 21.7591688,28.307848 L21.7591688,24.4582757 Z M38.4482731,24.6505651 L41.6574661,24.6505651 L41.6574661,27.0564531 L38.4482731,27.0564531 L38.4482731,30.5214467 L36.1560957,30.5214467 L36.1560957,27.0564531 L32.8544062,27.0564531 L32.8544062,24.6505651 L36.1560957,24.6505651 L36.1560957,21.2824732 L38.4482731,21.2824732 L38.4482731,24.6505651 Z" id="Google+" fill="#0976D1" opacity="0.787420743"></path>
                <circle id="Oval-4" stroke="#0976D1" cx="26.8778113" cy="26.8778113" r="26.8778113"></circle>
            </g>
        </g>
    </g>
</svg>