<?xml version="1.0" encoding="UTF-8"?>
<svg width="93px" height="83px" viewBox="0 0 93 83" version="1.1" xmlns="http://www.w3.org/2000/svg" xmlns:xlink="http://www.w3.org/1999/xlink">
    <!-- Generator: sketchtool 46.2 (44496) - http://www.bohemiancoding.com/sketch -->
    <title>2A25DF35-18A7-48D8-9944-3DAC3A9E0217</title>
    <desc>Created with sketchtool.</desc>
    <defs></defs>
    <g id="Home" stroke="none" stroke-width="1" fill="none" fill-rule="evenodd">
        <g id="MRE---Home-desktop-2" transform="translate(-314.000000, -494.000000)" fill="#FFFFFF">
            <g id="d-iconhome1" transform="translate(314.000000, 493.000000)">
                <path d="M3.10400488,52.3523854 C4.11712683,52.8819951 5.65883415,53.3859951 7.68405366,53.8531171 C9.27902927,54.2198488 10.5584927,54.4206293 10.6138098,54.4278 C11.0163951,54.4872146 11.5828829,54.8672634 11.5828829,55.5310683 L11.5828829,59.252678 C11.5828829,59.9267268 12.1534683,60.4737512 12.8541512,60.4737512 L14.6314683,60.4737512 C15.3321512,60.4737512 15.9017122,59.9267268 15.9017122,59.252678 L15.9017122,55.3364341 C15.9017122,54.7699463 16.2500049,54.3325317 16.7919073,54.2198488 C17.8757122,53.9760439 18.9113707,53.606239 19.8681512,53.1186293 C22.2109317,51.9272634 23.8960537,50.096678 24.7411756,47.8256049 C25.1478585,46.7336049 25.353761,45.5596537 25.353761,44.3375561 C25.353761,42.9833122 25.1529805,41.7898976 24.7411756,40.6866293 C23.6174195,37.6810683 20.896639,35.4632634 15.9191268,33.4954098 C13.9932732,32.7240439 12.6851268,32.1135073 11.6771268,31.5152634 C9.56380976,30.2634585 8.66234634,28.9491659 8.66234634,27.122678 C8.66234634,24.7686293 10.5380049,22.3940927 14.7298098,22.3940927 C18.2383463,22.3940927 20.9458098,23.7083854 21.2408341,23.856922 C21.5604439,24.0279951 21.9066878,24.0577024 22.2232244,23.9429707 C22.5202976,23.8323366 22.7589805,23.5967268 22.8788341,23.2945317 L23.836639,20.8411171 C24.033322,20.3176537 23.6747854,19.9355561 23.403322,19.8187756 C21.7704439,19.1078488 18.6163463,18.4491659 17.1760537,18.200239 C16.6372244,18.1059951 16.2745902,17.6849707 16.2745902,17.1522878 L16.2602488,13.5997024 C16.2602488,12.9256537 15.6906878,12.3776049 14.9910293,12.3776049 L13.271078,12.3776049 C12.5724439,12.3776049 12.0028829,12.9246293 12.0028829,13.5976537 L12.0069805,17.3346293 C12.0069805,17.9564341 11.5183463,18.354922 11.0358585,18.4747756 C6.06039512,19.6579463 2.96980976,23.2381902 2.96980976,27.8172146 C2.96980976,29.348678 3.32322439,30.7039463 4.05054146,31.9618976 C5.0657122,33.716678 6.81639512,35.2071659 9.4019561,36.5183854 C10.4263463,37.0398 11.5705902,37.5345805 12.9996146,38.0775073 C17.6267854,39.8947756 19.6007854,41.8872146 19.6007854,44.7411659 C19.6007854,47.9352146 16.785761,50.1653122 12.7558098,50.1653122 C11.0676146,50.1653122 9.0966878,49.6121415 7.73937073,49.1480927 C6.25298049,48.6399951 5.16098049,48.1257512 5.1497122,48.1196049 C4.98785854,48.0438 4.80756585,48.0038488 4.62829756,48.0038488 C4.13146829,48.0038488 3.71659024,48.2917024 3.54449268,48.7557512 L2.78746829,50.8065805 L2.78132195,52.0962878 L2.80898049,52.1249707 C2.94112683,52.2653122 3.07839512,52.3390683 3.10400488,52.3523854" id="Fill-1"></path>
                <g id="Group-5" transform="translate(0.000000, 0.451654)">
                    <path d="M36.3041854,64.7246634 L36.3041854,77.2232488 L20.5972098,77.2232488 C22.0221366,76.4744195 23.4009659,75.6733463 24.7009171,74.8405171 C25.9353073,74.0507122 27.0693073,73.2609073 28.168478,72.4301268 C31.0838927,70.2215415 33.8210634,67.6308585 36.3041854,64.7246634 L36.3041854,64.7246634 Z M41.3329171,77.2232488 L53.242478,77.2232488 L53.242478,58.7985659 L41.3329171,58.7985659 L41.3329171,77.2232488 Z M58.2712098,77.2232488 L70.1817951,77.2232488 L70.1817951,41.138078 L58.2712098,41.138078 L58.2712098,77.2232488 Z M75.2095024,77.2232488 L87.1200878,77.2232488 L87.1200878,30.522322 L75.2095024,30.522322 L75.2095024,77.2232488 Z M89.6339415,25.4946146 L72.6946244,25.4946146 C71.3086244,25.4946146 70.1807707,26.6224683 70.1807707,28.0084683 L70.1807707,36.1103707 L55.552478,36.1103707 C54.3232098,36.192322 53.3520878,37.1439805 53.242478,38.3814439 L53.242478,53.7718829 L43.5701854,53.7718829 C43.9102829,53.0988585 44.2923805,52.3295415 44.6468195,51.5397366 C48.7617951,42.356078 50.7859902,31.4196878 50.6630634,19.032761 C50.6630634,18.9692488 50.6640878,18.9057366 50.6651122,18.8432488 C50.6661366,18.7694927 50.667161,18.6947122 50.667161,18.6209561 C50.6610146,18.2286146 50.9755024,17.9008098 51.3668195,17.8874927 L54.6079902,17.7881268 C54.7729171,17.7840293 54.9368195,17.7686634 55.0935512,17.7420293 C56.0165268,17.5893951 56.7448683,17.0690049 57.0911122,16.3099317 C57.3615512,15.7198829 57.3789659,15.0468585 57.1402829,14.3646146 C57.0634537,14.1433463 56.962039,13.9272 56.8370634,13.7192488 L49.6776,2.00227317 C49.0486244,0.973785366 48.0283317,0.437004878 47.0100878,0.601931707 C46.1977463,0.736126829 45.501161,1.28417561 45.0463317,2.14363902 L38.6623317,14.2048098 L38.6346732,14.2539805 C38.1235024,15.2210049 38.1132585,16.2269561 38.6039415,17.016761 C39.0782341,17.7768585 39.9479415,18.2081268 40.9989659,18.2081268 C41.0317463,18.2081268 41.0645268,18.2071024 41.0983317,18.206078 L44.4204293,18.1015902 L44.4470634,18.1015902 C44.632478,18.1015902 44.8096976,18.174322 44.9459415,18.3033951 C45.0842341,18.4345171 45.165161,18.6219805 45.1682341,18.8145659 C45.1692585,18.8514439 45.1682341,18.8862732 45.1682341,18.9221268 C45.1672098,18.9590049 45.1661854,18.9969073 45.1672098,19.0348098 C45.2778439,28.6128585 44.0393561,37.2372 41.4876,44.6681268 C39.6816,49.926322 37.1820878,54.690761 34.0607707,58.8272488 C31.5161854,62.2005659 28.5014049,65.2337854 25.1004293,67.8449561 C24.986722,67.9330537 24.8719902,68.018078 24.7572585,68.1031024 L24.585161,68.2311512 C23.0567707,69.3712976 21.4372098,70.435639 19.7705268,71.3954927 C15.0347707,74.1224195 10.5817463,75.6323707 7.67964878,76.4201268 C5.36657561,77.048078 3.67325854,77.3277366 2.8691122,77.4383707 C2.66628293,77.4660293 2.53618537,77.4813951 2.49520976,77.4854927 C1.75867317,77.5551512 1.09589268,77.9065171 0.628770732,78.4740293 C0.16164878,79.0425659 -0.0575707317,79.7565659 0.0131121951,80.4879805 C0.0827707317,81.2193951 0.434136585,81.8801268 1.00062439,82.3482732 C1.49745366,82.7570049 2.11618537,82.9752 2.76667317,82.9752 C2.84862439,82.9752 2.9316,82.9711024 3.01457561,82.9649561 C3.0360878,82.9629073 3.56569756,82.914761 4.53067317,82.7539317 C5.0633561,82.6658341 5.93716098,82.5070537 7.05579512,82.2509561 L89.6339415,82.2509561 C91.0199415,82.2509561 92.1477951,81.1241268 92.1477951,79.7371024 L92.1477951,28.0084683 C92.1477951,26.6224683 91.0199415,25.4946146 89.6339415,25.4946146 L89.6339415,25.4946146 Z" id="Fill-3"></path>
                </g>
            </g>
        </g>
    </g>
</svg>