<?xml version="1.0" encoding="UTF-8"?>
<svg width="80px" height="84px" viewBox="0 0 80 84" version="1.1" xmlns="http://www.w3.org/2000/svg" xmlns:xlink="http://www.w3.org/1999/xlink">
    <!-- Generator: sketchtool 46.2 (44496) - http://www.bohemiancoding.com/sketch -->
    <title>B6B257AF-B13A-492C-9EDC-33C43175A446</title>
    <desc>Created with sketchtool.</desc>
    <defs>
        <polygon id="path-1" points="0 83.0561798 79.1390476 83.0561798 79.1390476 0.458696629 0 0.458696629"></polygon>
    </defs>
    <g id="Home" stroke="none" stroke-width="1" fill="none" fill-rule="evenodd">
        <g id="MRE---Home-desktop-2" transform="translate(-1040.000000, -493.000000)">
            <g id="d-iconhome1" transform="translate(1040.000000, 493.000000)">
                <g id="Group-3" transform="translate(0.000000, 0.485029)">
                    <mask id="mask-2" fill="white">
                        <use xlink:href="#path-1"></use>
                    </mask>
                    <g id="Clip-2"></g>
                    <path d="M66.192,56.2822652 L63.8300952,54.7532764 L62.8110476,49.8926022 C62.4824762,48.2833888 60.899619,47.2432989 59.2748571,47.5689169 C59.2567619,47.5726921 59.2386667,47.5764674 59.2205714,47.5802427 L54.8300952,48.5240629 L53.8777143,44.1730517 C53.539619,42.5657258 51.9500952,41.5341303 50.3281905,41.8691865 C50.3272381,41.8691865 50.3262857,41.8701303 50.3253333,41.8701303 L45.4777143,42.8422652 L40.7824762,39.7937258 C39.9786667,39.2585798 38.9281905,39.2585798 38.1253333,39.7937258 C29.4062857,45.7558382 17.4605714,43.5841079 11.444381,34.9434337 C7.02057143,28.589636 6.91390476,20.2160629 11.1729524,13.7537258 L11.1729524,13.7820404 C16.9577143,4.99413034 28.8367619,2.51660225 37.704381,8.25031011 C44.2529524,12.4833438 47.5510476,20.2330517 46.039619,27.8355236 C45.8539048,28.7765124 46.259619,29.7344899 47.0681905,30.2611416 L72.4681905,46.7779955 L74.1253333,54.640018 L66.192,56.2822652 Z M32.4786667,48.0049618 L43.1834286,71.7137258 L40.812,77.8296809 L34.6405714,75.4890067 L33.7453333,73.5069843 L35.259619,69.5901303 C35.8529524,68.1017258 35.1167619,66.4188944 33.6148571,65.8308944 C33.6015238,65.8252315 33.5881905,65.8205124 33.5739048,65.8148494 L30.2215238,64.5406921 L31.5167619,61.3317034 C32.1100952,59.8432989 31.3739048,58.1604674 29.872,57.5724674 C29.8586667,57.5668045 29.8453333,57.5620854 29.8310476,57.5564225 L25.8786667,56.0463101 L23.9739048,51.7424899 C23.5853333,50.8590742 22.6881905,50.3041079 21.7167619,50.345636 C12.6862857,50.655209 5.112,43.6501753 4.79961905,34.6999281 C4.77580952,34.0194337 4.7967619,33.3398831 4.85866667,32.6650517 C6.62533333,37.2397483 9.80914286,41.2528719 14.1062857,44.0409169 C19.564381,47.5764674 26.1291429,48.6845124 32.2986667,47.3603326 C32.3291429,47.5792989 32.3853333,47.7963775 32.4786667,48.0049618 L32.4786667,48.0049618 Z M79.0681905,55.0836135 L77.039619,45.4094562 C76.8358095,44.439209 76.2491429,43.5897708 75.4110476,43.0499056 L50.9729524,27.1748494 C52.6367619,14.1746697 43.3510476,2.29857978 30.2329524,0.649725843 C17.1148571,-0.99912809 5.132,8.2031191 3.46819048,21.2032989 C3.36438095,22.0083775 3.31866667,22.8115685 3.29866667,23.6119281 C2.89104762,23.8337258 2.54342857,24.1744449 2.3167619,24.6170966 C-2.99085714,34.9132315 1.12914286,47.5236135 11.5186667,52.7825798 C14.2205714,54.1511191 17.1891429,54.9259955 20.2215238,55.0552989 L21.6977143,58.3303551 C22.1100952,59.2420854 22.8700952,59.9546697 23.812,60.3123775 L26.4215238,61.2561978 L25.6310476,63.4081079 C24.7939048,65.5741753 25.8872381,68.0026247 28.0729524,68.8331865 C28.0748571,68.8331865 28.0767619,68.8341303 28.0786667,68.8350742 L30.2024762,69.6373213 L29.2500952,72.2139506 C28.8881905,73.1483326 28.9158095,74.1874787 29.3262857,75.1020404 L30.5834286,77.9335011 C30.9662857,78.8008719 31.6834286,79.4804225 32.5739048,79.8211416 L40.659619,82.8885573 C42.2939048,83.435973 44.0710476,82.6006921 44.6786667,81.0009169 L47.7834286,72.9878831 C48.1205714,72.1072989 48.0929524,71.1304449 47.7072381,70.2696809 L37.459619,47.4292315 C38.0272381,46.7477933 38.552,46.0323775 39.0310476,45.2867596 C39.1539048,45.0913888 39.2339048,44.8846921 39.2939048,44.6732764 C39.3510476,44.6402427 39.4110476,44.6128719 39.4681905,44.5788944 L43.1348571,46.9573213 C43.9958095,47.5217258 45.044381,47.7312539 46.0586667,47.5424899 L46.1539048,47.5424899 L49.639619,46.8251865 L50.2491429,49.7132764 C50.7586667,52.1313438 53.1510476,53.6829843 55.5910476,53.1770966 C55.592,53.1770966 55.592,53.1770966 55.592,53.1770966 L58.5062857,52.5730517 L59.2205714,55.9991191 C59.4367619,57.0316584 60.0567619,57.9377258 60.944381,58.5191191 L63.9062857,60.4067596 C64.5167619,60.8059955 65.232,61.0183551 65.9634286,61.0202427 C66.2224762,61.0211865 66.4805714,60.9957034 66.7348571,60.9447371 L76.4967619,58.981591 C78.2929524,58.608782 79.4434286,56.8636584 79.0681905,55.0836135 L79.0681905,55.0836135 Z" id="Fill-1" fill="#FFFFFF" mask="url(#mask-2)"></path>
                </g>
                <path d="M24.2872381,22.8085483 C23.3786667,23.943964 21.7139048,24.1355596 20.5681905,23.2351551 C19.5758095,22.4565034 19.279619,21.0917393 19.8586667,19.9770876 L19.8586667,19.9298966 C20.2415238,19.3456719 20.8453333,18.9369978 21.5348571,18.7973124 C21.7129524,18.7605034 21.8948571,18.741627 22.0777143,18.7406831 C23.539619,18.741627 24.724381,19.9166831 24.724381,21.3654472 C24.724381,21.8788854 24.572,22.3800539 24.2872381,22.8085483 M20.5824762,14.1499416 C16.5758095,14.9767281 14.004381,18.8652674 14.8377143,22.8349753 C15.2377143,24.7414921 16.3862857,26.4129978 18.0300952,27.4804584 L18.0110476,27.4804584 C19.2177143,28.270436 20.632,28.690436 22.0777143,28.6885483 C22.5900952,28.6866607 23.1005714,28.6328629 23.6015238,28.5280989 C27.6081905,27.7022562 30.179619,23.8137169 29.3462857,19.8430652 C28.512,15.8724135 24.5891429,13.3240989 20.5824762,14.1499416" id="Fill-4" fill="#FFFFFF"></path>
            </g>
        </g>
    </g>
</svg>