<?xml version="1.0" encoding="UTF-8"?>
<svg width="56px" height="56px" viewBox="0 0 56 56" version="1.1" xmlns="http://www.w3.org/2000/svg" xmlns:xlink="http://www.w3.org/1999/xlink">
    <!-- Generator: sketchtool 46.2 (44496) - http://www.bohemiancoding.com/sketch -->
    <title>F71F5C2A-BD91-4B68-8666-EEB0D3F636C4</title>
    <desc>Created with sketchtool.</desc>
    <defs></defs>
    <g id="Blog" stroke="none" stroke-width="1" fill="none" fill-rule="evenodd">
        <g id="MRE---Blog-detail-desktop-reply" transform="translate(-727.000000, -1591.000000)">
            <g id="Group-4" transform="translate(728.000000, 1592.000000)">
                <path d="M14.5509412,21.9008099 L19.6930994,21.9008099 L19.6930994,38.8803017 L14.5509412,38.8803017 L14.5509412,21.9008099 Z M33.7428487,21.7375886 C37.3974284,21.7375886 40.2688839,24.1799464 40.2688839,29.4395493 L40.2688839,38.8803017 L34.4380055,38.8803017 L34.4380055,30.0939253 C34.4380055,27.7939204 33.5261486,26.2243124 31.5200632,26.2243124 C29.9859979,26.2243124 29.1327859,27.2833878 28.7358599,28.3044529 C28.5871021,28.6711419 28.6099879,29.1816744 28.6099879,29.692207 L28.6099879,38.8803017 L22.8334633,38.8803017 C22.8334633,38.8803017 22.9078423,23.3161402 22.8334633,21.9008099 L28.6099879,21.9008099 L28.6099879,24.5660133 C28.9511297,23.4003595 30.7970143,21.7375886 33.7428487,21.7375886 Z M17.0269011,13.885822 C18.9242788,13.885822 20.0907406,15.1535824 20.12793,16.8290234 C20.12793,18.4746523 18.9242788,19.7774418 16.991142,19.7774418 L16.9539526,19.7774418 C15.0930492,19.7774418 13.885822,18.4791241 13.885822,16.8334952 C13.885822,15.1565636 15.1280931,13.885822 17.0269011,13.885822 Z" id="Fill-88" fill="#0976D1" opacity="0.787420743"></path>
                <circle id="Oval-4-Copy-2" stroke="#0976D1" cx="26.8778113" cy="26.8778113" r="26.8778113"></circle>
            </g>
        </g>
    </g>
</svg>