<svg xmlns="http://www.w3.org/2000/svg" width="73" height="65" viewBox="0 0 73 65">
    <g fill="#4A4A4A" fill-rule="nonzero" stroke="#4A4A4A">
        <path d="M51.733 1H21.73c-2.892 0-5.246 2.078-5.246 4.63v53.795c0 2.553 2.354 4.63 5.246 4.63h30.001c2.893 0 5.248-2.077 5.248-4.629V5.629C56.98 3.078 54.624 1 51.733 1zM18.866 9.407h35.731v39.935H18.866V9.407zm2.864-6.305h30.001c1.58 0 2.866 1.134 2.866 2.527v1.677H18.866V5.629c0-1.393 1.285-2.527 2.864-2.527zm30.003 58.851H21.73c-1.58 0-2.864-1.134-2.864-2.527v-7.982h35.731v7.982c0 1.393-1.285 2.527-2.864 2.527z"/>
        <path d="M36.731 52.495c-2.627 0-4.764 1.885-4.764 4.204 0 2.318 2.137 4.203 4.764 4.203 2.628 0 4.764-1.885 4.764-4.203 0-2.319-2.136-4.204-4.764-4.204zm0 6.306c-1.313 0-2.382-.943-2.382-2.102 0-1.16 1.069-2.102 2.382-2.102 1.314 0 2.382.943 2.382 2.102 0 1.159-1.068 2.102-2.382 2.102zM31.967 6.255h4.764c.659 0 1.191-.47 1.191-1.051s-.532-1.051-1.19-1.051h-4.765c-.659 0-1.19.47-1.19 1.05 0 .582.531 1.052 1.19 1.052zM40.304 6.255h1.191c.66 0 1.192-.47 1.192-1.051s-.533-1.051-1.192-1.051h-1.19c-.66 0-1.192.47-1.192 1.05 0 .582.533 1.052 1.191 1.052zM68.427 5.802a1.305 1.305 0 0 0-1.684 0 .965.965 0 0 0 0 1.486c4.45 3.926 4.45 10.314 0 14.242a.965.965 0 0 0 0 1.486c.232.205.537.308.842.308.305 0 .61-.103.842-.308 5.38-4.745 5.38-12.468 0-17.214z"/>
        <path d="M63.412 8.194a1.305 1.305 0 0 0-1.684 0 .965.965 0 0 0 0 1.486c1.473 1.3 2.284 3.031 2.284 4.875 0 1.843-.81 3.574-2.284 4.874a.965.965 0 0 0 0 1.486c.232.205.537.308.842.308.305 0 .61-.103.842-.308 1.923-1.696 2.982-3.956 2.982-6.36 0-2.405-1.057-4.665-2.982-6.361zM6.72 7.288a.965.965 0 0 0 0-1.486 1.305 1.305 0 0 0-1.685 0c-5.378 4.746-5.378 12.468 0 17.214.233.205.537.308.842.308.305 0 .61-.103.842-.308a.965.965 0 0 0 0-1.486c-4.45-3.926-4.45-10.315 0-14.242z"/>
        <path d="M11.735 7.904a1.305 1.305 0 0 0-1.684 0c-1.924 1.696-2.983 3.955-2.983 6.36 0 2.404 1.06 4.664 2.983 6.36.232.206.537.309.842.309.305 0 .61-.103.842-.308a.965.965 0 0 0 0-1.486c-1.473-1.3-2.285-3.032-2.285-4.875 0-1.844.81-3.575 2.285-4.874a.967.967 0 0 0 0-1.486z"/>
    </g>
</svg>
