<svg xmlns="http://www.w3.org/2000/svg" width="32" height="32" viewBox="0 0 32 32">
    <path fill="#8F8F8F" fill-rule="evenodd" d="M13.167 26.167l-2.049-2.049a1.236 1.236 0 0 1-.381-.904c0-.348.127-.65.381-.904l6.168-6.167-6.168-6.168a1.236 1.236 0 0 1-.381-.904c0-.348.127-.65.381-.904l2.05-2.049c.254-.254.555-.381.903-.381.349 0 .65.127.904.381l9.121 9.12c.254.255.382.557.382.905s-.128.65-.382.904l-9.12 9.12a1.236 1.236 0 0 1-.905.382c-.348 0-.65-.127-.904-.382zM.571 16.143c0 2.799.69 5.38 2.07 7.744a15.36 15.36 0 0 0 5.615 5.615c2.363 1.38 4.945 2.07 7.744 2.07 2.8 0 5.38-.69 7.744-2.07a15.36 15.36 0 0 0 5.615-5.615c1.38-2.364 2.07-4.945 2.07-7.744 0-2.8-.69-5.38-2.07-7.745a15.36 15.36 0 0 0-5.615-5.615C21.381 1.404 18.8.714 16 .714c-2.8 0-5.38.69-7.744 2.07A15.36 15.36 0 0 0 2.64 8.397C1.26 10.762.57 13.344.57 16.143z"/>
</svg>
