<svg xmlns="http://www.w3.org/2000/svg" width="32" height="32" viewBox="0 0 32 32">
    <path fill="#8F8F8F" fill-rule="evenodd" d="M18.833 26.167l2.049-2.049c.254-.254.381-.555.381-.904 0-.348-.127-.65-.381-.904l-6.168-6.167 6.168-6.168c.254-.254.381-.555.381-.904 0-.348-.127-.65-.381-.904l-2.05-2.049a1.236 1.236 0 0 0-.903-.381c-.349 0-.65.127-.904.381l-9.121 9.12a1.236 1.236 0 0 0-.382.905c0 .348.128.65.382.904l9.12 9.12c.255.255.556.382.905.382.348 0 .65-.127.904-.382zm12.596-10.024c0 2.799-.69 5.38-2.07 7.744a15.36 15.36 0 0 1-5.615 5.615c-2.363 1.38-4.945 2.07-7.744 2.07-2.8 0-5.38-.69-7.744-2.07a15.36 15.36 0 0 1-5.615-5.615C1.26 21.523.57 18.942.57 16.143c0-2.8.69-5.38 2.07-7.745a15.36 15.36 0 0 1 5.615-5.615C10.619 1.404 13.2.714 16 .714c2.8 0 5.38.69 7.744 2.07a15.36 15.36 0 0 1 5.615 5.614c1.38 2.364 2.07 4.946 2.07 7.745z"/>
</svg>
