<?xml version="1.0" encoding="UTF-8"?>
<svg width="56px" height="56px" viewBox="0 0 56 56" version="1.1" xmlns="http://www.w3.org/2000/svg" xmlns:xlink="http://www.w3.org/1999/xlink">
    <!-- Generator: sketchtool 46.2 (44496) - http://www.bohemiancoding.com/sketch -->
    <title>17134347-EE89-436A-A8E1-6EB3182B1DDA</title>
    <desc>Created with sketchtool.</desc>
    <defs></defs>
    <g id="Blog" stroke="none" stroke-width="1" fill="none" fill-rule="evenodd">
        <g id="MRE---Blog-detail-desktop-reply" transform="translate(-796.000000, -1591.000000)">
            <g id="Group-6" transform="translate(797.000000, 1592.000000)">
                <path d="M39.5412065,15.6851373 C38.4944217,16.3272193 37.3377457,16.7941879 36.1014689,17.0440446 C35.1166741,15.9549256 33.7092205,15.2744042 32.1510187,15.2744042 C29.1642304,15.2744042 26.7402826,17.7857845 26.7402826,20.8830111 C26.7402826,21.3229297 26.7867751,21.7493233 26.87976,22.1600564 C22.3812624,21.9258603 18.3934773,19.6956578 15.7222742,16.2980337 C15.2559407,17.1294657 14.9896657,18.0940123 14.9896657,19.1212009 C14.9896657,21.0659546 15.9448745,22.7829186 17.398116,23.788752 C16.5119416,23.761702 15.6757817,23.5068624 14.9445821,23.0897227 L14.9445821,23.1580596 C14.9445821,25.876586 16.8106204,28.1445161 19.2888094,28.6577545 C18.8351557,28.7894453 18.3561425,28.8556467 17.8623362,28.8556467 C17.5136427,28.8556467 17.1734025,28.8214783 16.8437287,28.7559887 C17.5326624,30.9833438 19.5304293,32.6056328 21.8994314,32.6490552 C20.0474818,34.1538902 17.7122923,35.0508117 15.1770444,35.0508117 C14.7402971,35.0508117 14.3084808,35.0251854 13.885822,34.9739327 C16.2808881,36.5627651 19.1274946,37.4917195 22.1833172,37.4917195 C32.1404523,37.4917195 37.5835922,28.9467625 37.5835922,21.5343469 C37.5835922,21.2901849 37.5793656,21.0467348 37.570208,20.8075557 C38.6275592,20.0166988 39.5461375,19.0293733 40.2688839,17.9046622 C39.2995866,18.3502755 38.2556195,18.6520968 37.1609334,18.7873468 C38.2788658,18.0940123 39.136863,16.9949275 39.5412065,15.6851373" id="Twitter" fill="#0976D1" opacity="0.787420743"></path>
                <circle id="Oval-4-Copy-3" stroke="#0976D1" cx="26.8778113" cy="26.8778113" r="26.8778113"></circle>
            </g>
        </g>
    </g>
</svg>