<svg xmlns="http://www.w3.org/2000/svg" width="68" height="67" viewBox="0 0 68 67">
    <defs>
        <filter id="a" width="126.7%" height="126.7%" x="-13.3%" y="-6.7%" filterUnits="objectBoundingBox">
            <feOffset dy="4" in="SourceAlpha" result="shadowOffsetOuter1"/>
            <feGaussianBlur in="shadowOffsetOuter1" result="shadowBlurOuter1" stdDeviation="2"/>
            <feColorMatrix in="shadowBlurOuter1" result="shadowMatrixOuter1" values="0 0 0 0 0 0 0 0 0 0 0 0 0 0 0 0 0 0 0.3 0"/>
            <feMerge>
                <feMergeNode in="shadowMatrixOuter1"/>
                <feMergeNode in="SourceGraphic"/>
            </feMerge>
        </filter>
    </defs>
    <g fill="none" fill-rule="nonzero" filter="url(#a)" transform="translate(4)">
        <ellipse cx="29.587" cy="29.086" fill="#F0F0F0" rx="29.587" ry="29.086"/>
        <g fill="#D80027">
            <path d="M28.301 29.086h30.874c0-2.625-.356-5.169-1.02-7.588H28.302v7.588zM28.301 13.91h26.531a29.405 29.405 0 0 0-6.827-7.587H28.301v7.588zM29.587 58.172c6.964 0 13.364-2.366 18.418-6.323H11.17c5.054 3.957 11.454 6.323 18.417 6.323zM4.343 44.261h50.49a28.658 28.658 0 0 0 3.323-7.588H1.019a28.658 28.658 0 0 0 3.324 7.588z"/>
        </g>
        <path fill="#0052B4" d="M13.705 4.542h2.697l-2.508 1.791.958 2.899-2.508-1.792-2.508 1.792.827-2.504a29.422 29.422 0 0 0-5.738 6.287h.864l-1.597 1.14c-.248.408-.487.822-.715 1.243l.762 2.306-1.422-1.015c-.354.736-.677 1.489-.968 2.258l.84 2.54h3.1L3.28 23.28l.958 2.898-2.508-1.79-1.502 1.072A28.875 28.875 0 0 0 0 29.086h29.587V0a29.819 29.819 0 0 0-15.882 4.542zm1.147 21.635l-2.508-1.79-2.508 1.79.958-2.898-2.508-1.791h3.1l.958-2.898.958 2.898h3.1l-2.508 1.791.958 2.898zm-.958-11.37l.958 2.897-2.508-1.79-2.508 1.79.958-2.898-2.508-1.791h3.1l.958-2.898.958 2.898h3.1l-2.508 1.791zm11.57 11.37l-2.507-1.79-2.508 1.79.958-2.898-2.508-1.791h3.1l.958-2.898.958 2.898h3.1l-2.508 1.791.958 2.898zm-.957-11.37l.958 2.897-2.508-1.79-2.508 1.79.958-2.898-2.508-1.791h3.1l.958-2.898.958 2.898h3.1l-2.508 1.791zm0-8.474l.958 2.899-2.508-1.792-2.508 1.792.958-2.899-2.508-1.79h3.1l.958-2.9.958 2.9h3.1l-2.508 1.79z"/>
    </g>
</svg>
