<svg xmlns="http://www.w3.org/2000/svg" width="60" height="60" viewBox="0 0 60 60">
    <g fill="none" fill-rule="nonzero">
        <path fill="#0052B4" d="M57.023 43.043A29.88 29.88 0 0 0 60 30c0-4.675-1.07-9.1-2.977-13.043L30 14.347l-27.023 2.61A29.88 29.88 0 0 0 0 30c0 4.675 1.07 9.1 2.977 13.043L30 45.653l27.023-2.61z"/>
        <path fill="#D80027" d="M30 60c11.894 0 22.17-6.922 27.023-16.957H2.977C7.829 53.078 18.107 60 30 60z"/>
        <g fill="#F0F0F0">
            <path d="M51.957 35.889l-1.584 1.238.687 1.89-1.667-1.125-1.585 1.238.554-1.933-1.667-1.124 2.01-.07.555-1.934.688 1.89zM47.9 28.861l-1.066 1.706 1.293 1.54-1.952-.486-1.065 1.705-.14-2.006-1.952-.487 1.865-.753-.14-2.006 1.292 1.54zM41.683 23.645l-.418 1.967 1.741 1.005-2 .211-.418 1.966-.817-1.836-2 .21 1.494-1.346-.818-1.837 1.742 1.005zM34.057 20.87l.28 1.99 1.98.35-1.807.882.28 1.991-1.397-1.446-1.807.881.944-1.776-1.397-1.446 1.98.35zM25.943 20.87l.944 1.775 1.98-.35-1.397 1.448.944 1.775-1.807-.881-1.397 1.446.28-1.991-1.808-.882 1.98-.35zM18.317 23.645l1.495 1.345 1.74-1.005-.817 1.838 1.494 1.345-2-.21-.818 1.836-.417-1.966-2-.21 1.741-1.006zM12.1 28.861l1.865.753 1.292-1.54-.14 2.007 1.865.753-1.951.486-.14 2.006-1.066-1.705-1.951.486 1.292-1.54zM8.043 35.889l2.01.07.687-1.89.555 1.934 2.01.07-1.667 1.125.554 1.932-1.585-1.238-1.667 1.125.688-1.89z"/>
        </g>
        <path fill="#FFDA44" d="M57.023 16.957C52.171 6.922 41.893 0 30 0 18.106 0 7.83 6.922 2.977 16.957h54.046z"/>
    </g>
</svg>
